<?xml version="1.0" standalone="no"?>
<!DOCTYPE svg PUBLIC "-//W3C//DTD SVG 20010904//EN"
 "http://www.w3.org/TR/2001/REC-SVG-20010904/DTD/svg10.dtd">
<svg version="1.0" xmlns="http://www.w3.org/2000/svg"
 width="628.000000pt" height="628.000000pt" viewBox="0 0 628.000000 628.000000"
 preserveAspectRatio="xMidYMid meet">

<g transform="translate(0.000000,628.000000) scale(0.100000,-0.100000)"
fill="#000000" stroke="none">
<path d="M0 5505 c0 -767 0 -776 20 -765 10 6 23 16 27 23 23 38 126 45 164
11 8 -8 28 -15 42 -16 15 -1 27 -8 27 -14 0 -6 7 -17 15 -24 10 -8 15 -31 15
-66 0 -31 4 -54 10 -54 7 0 9 -13 5 -32 -3 -18 -8 -60 -11 -93 -2 -33 -7 -91
-11 -128 -5 -67 -5 -68 18 -66 104 9 117 -13 118 -193 0 -77 -4 -128 -9 -128
-15 0 -12 -77 3 -83 9 -4 9 -8 0 -14 -19 -13 -27 -199 -11 -258 9 -32 11 -68
6 -99 -5 -36 -3 -52 8 -63 8 -8 14 -21 14 -29 0 -8 5 -14 10 -14 6 0 10 -18
10 -40 0 -36 -2 -40 -25 -40 -22 0 -25 -4 -25 -40 0 -39 1 -40 34 -40 28 0 35
4 38 23 3 22 5 22 128 18 146 -4 168 -6 235 -23 63 -15 601 -20 629 -6 13 7
21 6 26 -2 6 -9 9 -9 15 -1 4 7 14 11 23 10 10 -2 40 1 69 5 40 6 60 4 84 -8
38 -19 95 -21 103 -3 3 9 9 7 19 -5 8 -10 23 -18 34 -18 24 0 46 23 35 36 -4
4 2 2 12 -6 13 -10 17 -10 12 -2 -4 7 -1 12 8 12 19 0 22 19 4 22 -7 1 41 5
107 9 66 5 148 11 183 14 l62 7 0 38 c0 21 6 41 12 43 10 4 10 6 1 6 -25 2
-28 1 -29 -9 -1 -5 -2 -15 -3 -21 0 -6 -9 -9 -19 -7 -10 3 -23 -1 -30 -9 -22
-23 -39 -14 -46 25 -3 20 -6 112 -6 205 l0 167 -80 0 c-44 0 -80 -3 -80 -7 0
-5 32 -8 71 -8 39 1 73 -3 75 -7 3 -4 -67 -8 -155 -8 -96 0 -161 4 -161 10 0
5 35 11 78 13 l77 3 -77 2 c-48 1 -78 6 -78 13 0 7 51 9 164 6 l164 -4 1 106
c1 58 4 126 7 151 l6 45 -79 -5 -78 -5 68 -3 67 -3 0 -34 c0 -60 -6 -65 -79
-67 l-66 -2 70 -6 c54 -5 38 -6 -70 -7 -90 0 -119 2 -80 6 l60 6 -68 6 c-39 3
-72 10 -76 18 -15 24 -21 -63 -21 -331 l0 -268 -22 -4 c-13 -3 -79 -7 -148
-10 l-125 -6 -20 28 c-19 26 -20 43 -20 317 0 160 3 309 8 333 4 23 3 42 -1
42 -5 0 -12 -23 -15 -52 -8 -66 -20 -78 -46 -47 l-20 24 -1 -24 c0 -21 -4 -23
-35 -19 -19 2 -37 -1 -39 -7 -2 -5 -5 0 -5 13 -1 22 -2 22 -23 8 -12 -9 -26
-16 -30 -16 -9 0 -10 50 -2 100 l6 35 111 -1 c62 -1 185 -5 275 -9 150 -8 162
-10 162 -27 0 -17 6 -18 48 -15 26 3 55 8 64 12 9 4 21 4 27 1 5 -4 12 -2 15
3 3 5 -30 12 -73 16 -69 6 -80 10 -85 28 -5 18 -8 19 -15 7 -12 -20 -137 -22
-133 -2 1 7 -5 15 -13 18 -8 4 -15 12 -15 20 0 8 -7 14 -15 14 -8 0 -19 17
-26 39 -8 26 -16 38 -25 34 -8 -3 -25 -2 -39 1 -20 5 -25 13 -25 36 0 17 4 30
9 30 5 0 12 11 15 25 5 18 15 27 36 31 16 4 31 13 34 21 4 9 21 14 53 14 131
-2 415 18 429 30 25 20 196 50 305 52 51 2 71 -2 86 -15 11 -10 29 -18 40 -18
12 0 24 8 29 18 20 45 29 100 22 137 -4 22 -7 109 -7 194 -1 138 1 159 20 199
12 24 30 49 40 55 11 7 19 17 19 24 0 7 4 13 8 13 13 0 30 59 37 128 5 40 12
65 21 69 8 3 14 13 14 23 0 10 9 22 20 25 11 3 20 12 20 20 0 8 9 17 20 20 11
3 20 11 20 16 0 5 7 9 16 9 8 0 13 4 9 10 -9 14 64 47 115 51 52 5 60 12 60
59 0 19 9 46 20 60 11 14 20 28 20 32 0 10 29 45 57 71 16 14 20 24 13 32 -6
7 -17 36 -26 65 -13 44 -14 60 -3 97 6 24 19 48 29 53 29 16 43 81 34 157 -9
79 -7 113 11 166 l13 37 -1589 0 -1589 0 0 -775z m2781 565 c37 -20 62 -41
106 -94 28 -32 46 -105 31 -123 -6 -7 -8 -22 -5 -33 3 -11 1 -20 -4 -20 -5 0
-9 -5 -9 -11 0 -7 -16 -26 -35 -45 -19 -18 -35 -37 -35 -42 0 -14 -36 -43 -43
-35 -4 3 -7 0 -7 -8 0 -21 -140 -23 -194 -2 -74 27 -95 38 -131 71 -7 6 -21
12 -29 12 -11 0 -16 9 -16 30 0 17 -5 30 -10 30 -6 0 -10 12 -10 28 0 15 -1
37 -1 50 -1 63 109 182 190 205 61 17 154 11 202 -13z m-1065 -336 c18 -9 36
-24 39 -35 4 -10 11 -19 17 -19 15 0 0 -68 -20 -96 -9 -13 -24 -24 -33 -24 -9
0 -22 -6 -28 -14 -32 -38 -117 -23 -173 31 -27 26 -27 45 -1 72 8 7 16 26 20
41 10 53 109 77 179 44z m585 -254 c40 0 102 -43 122 -85 22 -46 23 -237 1
-255 -12 -11 -10 -16 11 -36 15 -13 32 -24 39 -24 20 0 38 -77 34 -145 -3 -56
-5 -60 -28 -63 -14 -2 -35 -15 -47 -30 -20 -23 -25 -25 -43 -14 -11 6 -36 12
-55 12 -24 0 -35 5 -35 15 0 8 -18 32 -40 54 -22 21 -40 42 -40 47 0 4 -9 17
-19 28 -11 12 -22 38 -25 59 -5 33 -4 37 15 37 18 0 20 4 13 28 -4 15 -7 43
-6 62 1 19 -5 49 -13 67 -9 19 -14 44 -12 56 4 18 4 18 6 -5 1 -38 21 -36 21
2 0 17 -4 30 -9 30 -5 0 -13 18 -19 41 -9 35 -8 43 8 59 10 10 20 26 22 36 1
9 11 18 22 20 10 1 24 8 30 14 7 7 12 7 14 0 2 -5 17 -10 33 -10z m-1017
-1185 c3 -8 12 -15 20 -15 9 0 15 -14 17 -43 4 -37 1 -42 -16 -42 -17 0 -20 5
-16 42 l3 43 -35 0 c-35 0 -53 11 -40 24 12 12 61 6 67 -9z m-61 -89 c4 -10 1
-13 -9 -9 -7 3 -14 9 -14 14 0 14 17 10 23 -5z m302 4 c3 -5 1 -10 -4 -10 -6
0 -11 5 -11 10 0 6 2 10 4 10 3 0 8 -4 11 -10z m-127 -22 c-6 -18 -28 -21 -28
-4 0 9 7 16 16 16 9 0 14 -5 12 -12z m262 -88 c0 -5 -4 -10 -10 -10 -5 0 -10
5 -10 10 0 6 5 10 10 10 6 0 10 -4 10 -10z m-394 -13 c1 -1 -2 -24 -7 -52 -6
-27 -12 -186 -16 -352 -4 -229 -9 -305 -18 -313 -8 -6 -40 -10 -72 -8 -58 3
-58 3 -71 43 -8 22 -14 58 -15 80 0 22 -2 30 -4 17 -7 -34 -23 -16 -23 26 -1
31 -2 34 -11 19 -7 -11 -8 -37 -4 -63 4 -27 2 -44 -4 -44 -11 0 -17 41 -28
199 -7 106 -9 113 -24 99 -18 -19 -39 -7 -39 23 0 28 25 42 41 23 12 -15 15
-12 21 27 10 68 9 159 -2 159 -5 0 -11 -8 -11 -17 -1 -17 -2 -17 -6 0 -5 20
-14 22 -32 5 -9 -8 -11 -8 -8 -2 12 22 -21 23 -35 2 -19 -29 -38 -15 -38 28 0
38 21 54 44 35 9 -8 22 -8 38 -2 29 11 45 41 23 41 -31 0 -13 18 27 26 33 7
268 8 274 1z m-346 -17 c12 -8 9 -10 -13 -10 -16 0 -26 4 -22 10 8 12 16 12
35 0z m394 -275 c-3 -16 0 -25 8 -25 9 0 8 -3 -2 -10 -11 -7 -12 -10 -2 -10
10 0 10 -3 -2 -15 -8 -8 -21 -15 -28 -15 -10 0 -9 3 2 10 12 8 10 10 -10 11
l-25 1 25 8 c14 4 18 8 10 9 -16 1 -23 41 -7 41 4 0 5 5 2 10 -3 6 3 10 14 10
16 0 19 -5 15 -25z m685 0 c2 -3 -36 -5 -85 -4 -60 1 -81 4 -64 9 24 8 140 4
149 -5z m-1109 -36 c0 -33 -3 -40 -17 -37 -32 6 -30 78 2 78 11 0 15 -11 15
-41z m480 31 c0 -5 -4 -10 -10 -10 -5 0 -10 5 -10 10 0 6 5 10 10 10 6 0 10
-4 10 -10z m100 0 c0 -5 -4 -10 -10 -10 -5 0 -10 5 -10 10 0 6 5 10 10 10 6 0
10 -4 10 -10z m613 3 c-13 -2 -35 -2 -50 0 -16 2 -5 4 22 4 28 0 40 -2 28 -4z
m60 0 c-7 -2 -19 -2 -25 0 -7 3 -2 5 12 5 14 0 19 -2 13 -5z m-756 -29 c-3 -3
-12 -4 -19 -1 -8 3 -5 6 6 6 11 1 17 -2 13 -5z m80 0 c-3 -3 -12 -4 -19 -1 -8
3 -5 6 6 6 11 1 17 -2 13 -5z m-84 -21 c-7 -2 -19 -2 -25 0 -7 3 -2 5 12 5 14
0 19 -2 13 -5z m84 1 c-3 -3 -12 -4 -19 -1 -8 3 -5 6 6 6 11 1 17 -2 13 -5z
m470 -41 c-20 -2 -52 -2 -70 0 -17 2 0 4 38 4 39 0 53 -2 32 -4z m146 0 c-7
-2 -21 -2 -30 0 -10 3 -4 5 12 5 17 0 24 -2 18 -5z m-1078 -373 c3 -5 -1 -10
-10 -10 -9 0 -13 5 -10 10 3 6 8 10 10 10 2 0 7 -4 10 -10z m522 -16 c-3 -3
-12 -4 -19 -1 -8 3 -5 6 6 6 11 1 17 -2 13 -5z"/>
<path d="M990 4049 c0 -11 5 -17 10 -14 6 3 10 13 10 21 0 8 -4 14 -10 14 -5
0 -10 -9 -10 -21z"/>
<path d="M1063 3635 c0 -44 2 -61 4 -37 2 23 2 59 0 80 -2 20 -4 1 -4 -43z"/>
<path d="M3473 6269 c9 -5 23 -22 31 -37 23 -45 57 -152 51 -162 -3 -5 -12
-54 -20 -110 -14 -106 -23 -126 -63 -141 -14 -5 -20 -14 -16 -20 4 -7 -4 -31
-16 -55 l-24 -42 57 -62 c49 -53 57 -67 59 -103 2 -63 -2 -90 -16 -107 -25
-29 -27 -67 -6 -120 11 -28 20 -66 20 -85 0 -33 1 -34 38 -29 20 3 48 8 62 11
23 6 23 7 -10 13 l-35 7 40 2 c22 1 57 4 78 7 30 5 37 3 37 -9 0 -25 19 -31
115 -34 49 -2 99 -4 110 -5 67 -5 125 3 125 17 0 17 16 20 25 5 11 -17 31 -11
43 13 10 20 11 20 12 -13 2 -57 18 -6 19 60 1 30 5 100 11 155 19 186 40 420
40 440 0 17 -2 17 -10 5 -5 -8 -10 -10 -10 -4 0 22 80 80 140 101 55 20 119
15 185 -14 40 -17 88 -28 145 -33 138 -12 226 -64 277 -164 25 -50 25 -52 23
-266 -1 -118 -3 -228 -5 -245 -2 -16 -1 -42 2 -58 7 -35 51 -57 123 -61 31 -2
58 -11 76 -25 15 -12 30 -20 33 -18 3 1 20 9 36 17 17 8 32 17 35 20 3 4 23
14 45 23 22 9 34 16 28 16 -18 1 -16 21 1 21 8 0 16 -7 20 -15 3 -8 11 -15 18
-15 8 0 9 3 3 8 -11 8 -14 154 -4 162 4 3 16 24 28 47 15 29 32 47 56 57 19 8
35 20 35 26 0 6 4 9 8 6 5 -3 52 -6 105 -7 57 -2 95 -7 94 -13 -3 -14 52 -33
61 -21 4 6 19 11 35 12 20 1 27 -4 27 -18 0 -13 -5 -17 -17 -12 -16 6 -17 5
-3 -12 14 -17 14 -18 -7 -6 -27 14 -30 5 -5 -18 9 -9 26 -34 36 -56 10 -22 23
-48 27 -57 5 -10 9 -28 8 -40 -1 -22 -1 -22 -9 2 -6 19 -8 11 -9 -33 -1 -36
-5 -56 -12 -55 -6 2 -14 -3 -17 -11 -3 -10 0 -12 12 -8 10 4 53 7 96 7 86 0
102 12 75 53 -16 26 -30 144 -21 181 5 19 15 27 41 32 19 3 35 10 35 15 0 5 9
9 20 9 11 0 20 -5 20 -11 0 -5 4 -8 9 -5 9 6 25 -23 17 -31 -2 -2 -18 -5 -35
-5 -39 -1 -43 -6 -31 -50 l10 -34 95 -2 95 -1 0 509 0 510 -1412 0 c-965 -1
-1407 -4 -1395 -11z m1964 -226 c30 -21 63 -49 73 -63 21 -30 35 -106 25 -148
-9 -41 -68 -67 -156 -67 -88 0 -116 15 -190 103 -35 41 -42 155 -12 178 33 26
107 44 157 39 35 -3 64 -15 103 -42z m203 -252 c0 -4 -11 -6 -25 -3 -14 2 -25
6 -25 8 0 2 11 4 25 4 14 0 25 -4 25 -9z m84 -8 c8 -20 -10 -33 -46 -33 -54 0
-80 24 -30 28 15 1 29 7 30 12 6 16 39 11 46 -7z m-2068 -377 c8 -8 14 -31 14
-50 0 -20 5 -36 10 -36 6 0 10 9 10 20 0 13 7 20 19 20 21 0 36 -26 21 -35 -6
-4 -10 -15 -10 -25 0 -13 -5 -17 -15 -14 -8 4 -15 1 -15 -5 0 -6 -11 -11 -25
-11 -23 0 -31 13 -26 43 1 10 -6 9 -29 -5 -15 -10 -22 -10 -32 0 -9 9 -9 12 5
12 11 0 18 12 23 37 6 32 21 61 32 63 2 0 10 -6 18 -14z m2554 -46 c8 -5 12
-11 9 -14 -3 -3 -14 1 -25 9 -21 16 -8 20 16 5z m-2596 -102 c-6 -9 -34 1 -34
12 0 5 6 10 13 13 13 4 28 -13 21 -25z m2301 -8 c3 -5 1 -10 -4 -10 -6 0 -11
5 -11 10 0 6 2 10 4 10 3 0 8 -4 11 -10z m12 -52 c-3 -8 -6 -5 -6 6 -1 11 2
17 5 13 3 -3 4 -12 1 -19z"/>
<path d="M4051 5019 c-68 -22 -75 -26 -186 -98 -122 -80 -250 -226 -293 -336
-42 -104 -44 -249 -6 -385 14 -52 29 -135 33 -185 8 -99 13 -96 11 7 -1 75 12
94 33 46 23 -50 29 -89 17 -103 -7 -9 -7 -20 0 -36 9 -21 38 -140 57 -231 6
-33 -2 -34 -92 -13 -53 12 -58 12 -40 -1 11 -8 37 -19 58 -25 24 -6 41 -18 46
-31 8 -21 8 -21 14 3 7 22 9 21 28 -21 11 -25 30 -55 41 -67 31 -33 13 -41
-34 -15 -23 12 -43 20 -46 17 -11 -10 68 -75 91 -75 14 0 31 -7 38 -16 11 -14
10 -18 -6 -30 -16 -12 -21 -12 -33 0 -13 13 -18 10 -38 -20 l-24 -34 36 -56
c38 -59 61 -66 30 -9 l-19 34 31 41 30 42 21 -24 c11 -12 27 -32 35 -43 26
-35 30 -7 6 42 -13 27 -27 57 -30 68 -20 56 -55 126 -76 150 -13 16 -29 47
-35 69 -5 23 -11 46 -13 51 -2 6 3 22 11 38 7 15 13 33 12 40 -4 23 20 65 48
85 25 18 129 42 180 42 28 0 32 -21 39 -183 8 -172 8 -246 0 -277 -3 -14 -10
-92 -15 -175 -5 -82 -12 -157 -15 -165 -18 -44 -139 -57 -176 -20 -21 21 -27
11 -10 -19 9 -18 42 -34 92 -45 22 -5 28 -13 33 -44 10 -61 25 -111 36 -118 8
-4 9 4 4 26 -4 18 -8 56 -9 84 -1 45 1 51 21 54 19 3 22 -3 28 -55 4 -32 12
-64 17 -70 7 -9 7 -13 1 -13 -6 0 -9 -22 -8 -51 1 -28 -1 -67 -6 -87 -6 -29
-4 -44 10 -68 16 -27 17 -34 5 -55 -17 -31 -17 -56 0 -62 9 -3 12 -15 9 -31
-6 -32 -23 -34 -23 -3 -1 21 -1 21 -12 3 -8 -15 -7 -22 5 -31 9 -7 14 -15 10
-18 -3 -4 1 -17 10 -30 12 -18 13 -34 6 -71 -5 -26 -14 -55 -21 -65 -11 -15
-16 -15 -38 -4 -14 7 -18 13 -10 13 13 0 13 2 1 9 -20 13 -49 -8 -61 -43 -6
-17 -20 -41 -33 -54 -14 -16 -18 -26 -11 -29 9 -3 8 -16 -2 -50 -8 -25 -14
-61 -14 -78 0 -18 -7 -39 -16 -46 -14 -12 -14 -14 3 -20 16 -7 15 -8 -4 -8
-20 -1 -23 4 -23 39 0 22 5 40 10 40 6 0 10 15 10 33 l-1 32 -21 -44 c-11 -25
-21 -67 -21 -93 -1 -28 -4 -43 -9 -36 -5 9 -8 4 -9 -12 0 -14 -2 -35 -5 -47
-2 -13 1 -23 7 -23 17 0 69 -57 69 -75 0 -9 6 -18 14 -21 8 -3 20 -20 27 -37
7 -18 18 -39 25 -47 12 -15 64 -161 64 -180 0 -6 -4 -10 -10 -10 -5 0 -10 8
-10 18 0 22 -32 64 -94 123 -44 43 -61 66 -83 109 -4 8 -18 26 -31 40 l-23 25
7 -40 c3 -22 12 -47 18 -55 6 -8 22 -37 36 -64 14 -27 35 -59 48 -72 28 -29
28 -36 -3 -51 -22 -10 -27 -8 -35 8 -6 11 -21 19 -35 19 -14 0 -25 5 -25 10 0
6 -7 10 -15 10 -8 0 -15 -3 -15 -7 0 -14 74 -118 113 -158 47 -50 49 -80 5
-90 -28 -7 -30 -9 -11 -12 12 -2 31 1 42 7 19 10 21 8 21 -24 0 -28 3 -34 16
-29 16 6 16 9 -1 -101 -6 -37 -6 -38 19 -32 24 6 26 4 25 -26 0 -18 2 -44 6
-58 6 -23 3 -25 -23 -25 -17 0 -34 3 -38 8 -13 12 -34 8 -34 -8 0 -8 10 -16
23 -17 47 -3 87 -18 87 -33 0 -7 10 -15 23 -18 23 -6 29 -40 14 -79 -4 -10 -9
-24 -11 -32 -6 -18 -89 -38 -134 -32 -30 5 -32 4 -12 -3 14 -5 39 -9 57 -10
25 -1 31 -4 26 -17 -5 -12 -15 -15 -44 -11 -22 3 -41 2 -44 -3 -6 -10 81 -34
100 -27 8 4 22 4 31 0 12 -5 9 -9 -14 -19 -23 -9 -47 -10 -99 -2 -37 5 -90 12
-116 14 -27 2 -59 10 -70 17 -21 11 -87 17 -87 7 0 -3 26 -18 58 -35 l57 -30
210 3 210 3 24 -53 c13 -29 27 -62 31 -73 4 -11 21 -49 39 -84 18 -37 31 -80
31 -102 0 -43 17 -95 27 -85 4 4 12 -10 18 -31 6 -23 19 -42 33 -48 24 -11 24
-31 -1 -29 -16 2 -17 -2 -17 -71 0 -22 0 -73 0 -112 l-1 -73 115 0 116 0 -6
29 c-5 24 -2 29 18 34 16 5 28 1 38 -11 27 -32 68 -52 110 -52 34 0 40 3 40
21 0 16 -4 20 -17 14 -15 -5 -16 -4 -5 6 6 7 12 25 12 40 0 18 6 29 18 32 15
4 15 5 1 6 -22 1 -31 85 -13 122 9 18 10 29 3 36 -7 7 -2 20 16 39 15 16 22
30 16 32 -21 7 -31 39 -21 71 5 19 5 29 -1 26 -16 -10 -10 5 11 27 15 16 17
25 9 35 -7 7 -8 26 -4 45 4 18 6 52 6 74 -1 29 4 44 14 48 8 3 15 13 14 23 0
16 -2 16 -10 -2 -7 -15 -8 -12 -5 17 3 20 13 54 22 74 10 21 17 46 17 56 -1
12 4 18 14 16 16 -3 48 66 37 83 -3 5 2 9 11 9 12 0 14 6 9 28 -6 26 -6 26 9
7 9 -11 17 -26 17 -32 0 -7 10 -12 23 -10 19 2 22 -2 20 -31 -1 -27 1 -31 13
-21 18 15 20 -11 2 -29 -10 -10 -10 -15 2 -22 13 -8 13 -12 0 -32 -8 -13 -21
-37 -30 -54 -9 -16 -26 -44 -39 -62 -30 -43 -18 -40 24 5 19 21 35 33 35 26 0
-6 -5 -15 -11 -18 -5 -4 -8 -12 -6 -18 2 -7 -2 -28 -10 -47 -9 -21 -10 -36 -4
-38 9 -3 5 -21 -16 -72 -11 -28 -14 -45 -14 -100 0 -30 -7 -68 -14 -85 -12
-26 -27 -70 -30 -85 -8 -43 -44 -129 -62 -148 -7 -7 -13 -19 -13 -26 0 -8 -3
-28 -7 -46 -5 -28 -4 -32 10 -27 9 3 19 2 22 -4 4 -6 67 -9 158 -8 134 1 149
3 132 15 -11 8 -25 12 -32 10 -7 -3 -13 -1 -13 4 0 6 -7 10 -15 10 -8 0 -15 4
-15 8 0 5 -11 14 -25 20 -14 6 -25 17 -25 23 0 8 7 6 18 -4 23 -21 33 -22 26
-2 -3 8 -15 17 -27 21 -24 8 -56 43 -57 63 0 8 6 11 16 7 12 -4 15 -2 10 9 -3
9 0 15 8 15 8 0 23 3 33 6 16 6 16 5 -2 -9 l-20 -16 20 -1 c11 0 45 -15 75
-33 89 -53 179 -85 133 -47 -13 10 -23 26 -23 37 0 14 -2 15 -9 4 -7 -11 -13
-9 -30 8 -11 11 -28 21 -36 21 -8 0 -12 6 -9 14 3 8 -4 16 -20 20 -16 4 -26
13 -26 24 0 14 2 14 9 3 5 -8 18 -12 30 -8 12 3 24 1 27 -4 7 -12 101 -11 109
1 4 6 -5 10 -19 10 -14 0 -26 4 -26 10 0 11 35 8 46 -3 11 -10 59 -9 89 3 15
6 44 11 66 12 21 1 39 3 39 5 0 13 -33 34 -62 38 -18 3 -27 3 -20 -1 31 -15 8
-26 -50 -23 -54 3 -67 7 -90 31 -14 15 -28 33 -31 40 -4 10 -8 10 -14 2 -6 -9
-11 -8 -20 1 -9 10 -7 15 10 23 41 19 58 22 75 11 12 -8 25 -7 47 2 69 30 119
36 147 20 38 -21 78 -3 78 36 0 25 -1 26 -14 8 -13 -18 -14 -18 -9 9 4 21 3
27 -6 22 -7 -4 -18 -2 -26 4 -12 10 -15 9 -15 -4 0 -9 -8 -16 -20 -16 -11 0
-20 -5 -20 -10 0 -6 -12 -10 -27 -9 -16 1 -41 -4 -57 -10 -22 -9 -31 -9 -36
-1 -5 8 -9 7 -13 -4 -4 -10 -19 -16 -41 -16 -19 0 -37 -4 -40 -9 -3 -4 -20
-11 -38 -15 -18 -4 -50 -18 -70 -31 -21 -14 -38 -20 -38 -14 0 6 9 13 20 16
11 3 20 9 20 13 0 4 14 13 30 20 17 7 28 15 25 18 -6 7 -69 -25 -112 -57 -18
-13 -33 -18 -33 -12 0 6 8 15 18 19 23 10 24 48 0 48 -10 0 -18 -5 -18 -10 0
-5 -3 -6 -7 -3 -3 4 -12 2 -20 -4 -10 -9 -13 -4 -13 25 0 38 7 44 29 24 11
-10 13 -10 7 -1 -4 7 -2 13 4 13 6 0 8 4 5 10 -3 5 -1 19 6 31 6 12 7 19 2 16
-5 -3 -9 6 -8 21 0 18 7 30 23 37 12 5 22 13 22 17 0 11 -14 10 -27 -3 -7 -7
-12 -6 -17 6 -3 9 -2 14 2 11 4 -2 16 3 27 11 20 15 20 15 -2 8 -18 -5 -22 -3
-17 9 4 9 1 16 -6 16 -9 0 -8 6 4 19 13 14 14 21 6 26 -9 6 -9 10 1 17 11 8
11 11 1 15 -9 3 -4 13 15 30 17 16 21 23 11 20 -13 -5 -18 -1 -18 13 0 13 5
18 15 14 18 -7 20 12 3 20 -10 5 -10 7 -1 12 7 3 9 12 6 20 -3 8 3 24 13 35
18 20 25 40 25 71 0 9 7 22 15 29 8 6 14 18 14 25 0 8 7 14 15 14 8 0 14 3 14
8 -1 4 -1 18 0 32 1 18 4 21 10 11 10 -16 17 -5 19 34 1 16 7 34 12 39 6 6 10
18 10 28 0 12 5 16 18 12 13 -5 14 -4 3 4 -9 7 -11 18 -7 33 4 13 10 42 12 64
3 22 9 41 14 43 5 2 7 16 4 31 -4 16 -1 32 5 36 8 4 9 23 5 56 -5 36 -3 49 6
49 10 0 10 3 0 15 -6 8 -10 20 -8 27 3 7 1 28 -4 46 -7 24 -6 38 4 50 9 10 9
13 1 9 -8 -5 -22 9 -40 41 -15 27 -48 72 -72 100 -178 207 -167 661 18 787
l33 23 23 -21 c12 -12 20 -28 17 -34 -2 -7 1 -13 8 -13 6 0 9 -4 6 -9 -3 -4 6
-13 21 -20 30 -14 40 -9 18 9 -8 7 -15 19 -15 26 0 8 -5 14 -10 14 -6 0 -15
11 -20 25 -5 14 -14 25 -20 25 -5 0 -10 11 -10 23 0 13 -9 32 -20 42 -10 9
-24 34 -31 54 -6 20 -17 50 -24 66 -34 84 -55 143 -61 173 -4 18 -11 35 -15
38 -5 3 -9 10 -9 15 0 6 6 7 13 3 6 -5 4 3 -6 16 -9 14 -21 35 -27 47 -5 12
-29 55 -55 97 -25 41 -45 79 -45 84 0 10 -35 89 -94 212 -17 36 -31 70 -31 77
0 6 -7 19 -16 30 -9 10 -21 34 -28 53 -21 56 -35 83 -53 102 -10 10 -18 28
-18 41 0 13 -11 33 -25 45 -19 17 -25 31 -23 56 1 21 -6 43 -20 61 -12 15 -22
39 -22 53 0 14 -6 33 -14 41 -19 21 -25 57 -8 54 6 -2 12 2 12 7 0 6 -6 10
-12 10 -18 1 -48 65 -48 101 0 17 -9 42 -20 56 -11 14 -20 41 -20 60 0 20 -8
43 -20 55 -14 15 -20 36 -20 64 0 24 -13 85 -30 136 -16 51 -30 97 -30 103 0
22 -43 150 -55 165 -7 8 -24 40 -39 71 -30 64 -67 109 -91 109 -9 0 -13 5 -10
10 10 16 -34 11 -104 -11z m-11 -88 c0 -14 -29 -21 -36 -9 -4 6 -3 8 4 4 6 -3
13 -2 17 4 8 12 15 13 15 1z m-169 -419 c-6 -2 -11 -13 -12 -25 l0 -22 -9 22
c-5 11 -6 31 -3 44 6 22 7 22 14 3 6 -16 8 -14 10 11 l2 30 4 -30 c3 -16 0
-31 -6 -33z m-160 -21 c-1 -23 -9 -58 -17 -76 -8 -19 -14 -44 -14 -55 0 -25
-33 -91 -53 -109 -13 -10 -16 -6 -22 29 -5 27 -3 46 5 55 7 8 10 15 6 15 -3 0
5 30 19 66 14 37 25 75 25 85 0 21 16 26 23 7 3 -7 6 -2 6 10 1 14 6 22 13 20
8 -3 11 -20 9 -47z m142 -73 c3 -12 3 -50 0 -86 l-6 -65 21 21 c13 13 19 29
16 44 -4 22 -4 22 6 -2 6 -14 9 -33 6 -42 -2 -10 0 -16 5 -12 5 3 9 -19 9 -50
0 -30 3 -61 6 -70 3 -9 2 -16 -4 -16 -13 0 -77 61 -90 87 -20 36 -26 157 -11
191 14 33 34 33 42 0z m-154 -223 c1 -17 -1 -18 -14 -5 -9 10 -12 24 -8 40 6
22 7 22 14 4 4 -10 8 -28 8 -39z m155 -120 c11 -8 16 -15 10 -15 -5 0 -18 7
-28 15 -11 8 -16 15 -10 15 5 0 18 -7 28 -15z m86 -9 c0 -2 -9 -6 -20 -9 -11
-3 -18 -1 -14 4 5 9 34 13 34 5z m-66 -35 c3 -5 -1 -14 -9 -21 -8 -7 -15 -10
-15 -7 0 3 -3 12 -6 21 -7 17 20 23 30 7z m-66 -18 c2 -9 -7 -13 -27 -13 -30
0 -39 9 -24 24 11 10 46 3 51 -11z m160 -50 c-10 -2 -26 -2 -35 0 -10 3 -2 5
17 5 19 0 27 -2 18 -5z m142 -143 c0 -5 -4 -10 -10 -10 -5 0 -10 5 -10 10 0 6
5 10 10 10 6 0 10 -4 10 -10z m-15 -237 c-10 -68 -17 -44 -8 28 4 35 9 53 11
40 2 -13 1 -44 -3 -68z m-6 -133 c1 -20 -1 -22 -9 -10 -5 8 -9 29 -9 45 0 26
2 27 9 10 5 -11 9 -31 9 -45z m-42 8 c-3 -8 -6 -5 -6 6 -1 11 2 17 5 13 3 -3
4 -12 1 -19z m0 -490 c-3 -8 -6 -5 -6 6 -1 11 2 17 5 13 3 -3 4 -12 1 -19z
m713 -698 c0 -5 -4 -10 -10 -10 -5 0 -10 5 -10 10 0 6 5 10 10 10 6 0 10 -4
10 -10z m198 -97 c-1 -57 -2 -60 -5 -20 -2 26 -8 47 -14 47 -5 0 -4 9 3 20 7
11 14 20 15 20 2 0 2 -30 1 -67z m-988 49 c0 -4 -7 -34 -15 -66 -15 -57 -21
-95 -24 -146 -1 -23 -3 -23 -12 -6 -16 26 -7 122 16 178 18 43 35 62 35 40z
m150 -656 c0 -3 -4 -8 -10 -11 -5 -3 -10 -1 -10 4 0 6 5 11 10 11 6 0 10 -2
10 -4z m960 -90 c0 -3 -4 -8 -10 -11 -5 -3 -10 -1 -10 4 0 6 5 11 10 11 6 0
10 -2 10 -4z m-643 -78 c-3 -7 -5 -2 -5 12 0 14 2 19 5 13 2 -7 2 -19 0 -25z
m633 5 c0 -10 -4 -14 -8 -8 -4 6 -11 13 -16 18 -5 4 -2 7 7 7 10 0 17 -8 17
-17z m34 -29 c23 -9 19 -31 -6 -38 -22 -6 -22 -7 -4 -17 13 -8 15 -13 7 -19
-7 -4 -13 -14 -15 -22 -1 -8 -9 -27 -19 -41 -9 -15 -17 -31 -17 -37 0 -6 -4
-8 -10 -5 -15 9 -12 41 5 55 12 10 14 26 9 71 -5 54 -4 59 14 59 11 0 27 -3
36 -6z m-1174 -148 c0 -15 -3 -16 -14 -7 -8 7 -12 21 -9 32 5 16 8 18 14 7 5
-7 9 -21 9 -32z m1170 -6 c0 -5 -5 -10 -11 -10 -5 0 -7 5 -4 10 3 6 8 10 11
10 2 0 4 -4 4 -10z m-29 -69 c-12 -12 -23 -21 -26 -21 -8 0 16 44 29 52 20 13
18 -10 -3 -31z m-142 -105 c14 -17 11 -37 -9 -53 -11 -8 -17 -9 -22 0 -12 19
-9 27 7 21 9 -4 15 0 15 10 0 9 -4 16 -10 16 -5 0 -10 5 -10 10 0 14 16 12 29
-4z m-689 -352 c0 -8 -4 -14 -10 -14 -5 0 -10 9 -10 21 0 11 5 17 10 14 6 -3
10 -13 10 -21z m-43 -6 c-3 -8 -6 -5 -6 6 -1 11 2 17 5 13 3 -3 4 -12 1 -19z
m103 -238 c0 -5 -7 -10 -16 -10 -8 0 -12 5 -9 10 3 6 10 10 16 10 5 0 9 -4 9
-10z m123 -21 c-6 -6 -18 -6 -28 -3 -18 7 -18 8 1 14 23 9 39 1 27 -11z m43
-41 c3 -9 0 -26 -5 -37 -6 -11 -11 -33 -11 -48 0 -16 -5 -34 -12 -41 -9 -9 -8
-12 5 -12 10 0 14 -5 11 -14 -3 -8 0 -17 5 -21 6 -3 9 -11 6 -16 -10 -14 -35
-11 -35 6 0 8 -9 19 -20 25 -25 14 -29 94 -5 104 11 4 14 13 9 30 -3 14 -4 29
-1 33 10 16 47 9 53 -9z m-69 -10 c-3 -8 -6 -5 -6 6 -1 11 2 17 5 13 3 -3 4
-12 1 -19z m-79 -66 c6 -18 -15 -14 -22 4 -4 10 -1 14 6 12 6 -2 14 -10 16
-16z m276 -7 c8 -30 26 -33 26 -4 0 12 5 19 13 17 16 -6 23 -216 7 -232 -7 -7
-10 -6 -10 2 0 7 -7 12 -15 12 -9 0 -20 12 -25 27 -6 16 -14 35 -19 44 -6 10
-6 32 -1 54 5 20 6 52 3 71 -7 40 12 47 21 9z m351 -35 c-3 -5 -11 -10 -16
-10 -6 0 -7 5 -4 10 3 6 11 10 16 10 6 0 7 -4 4 -10z"/>
<path d="M5085 1360 c3 -5 8 -10 11 -10 2 0 4 5 4 10 0 6 -5 10 -11 10 -5 0
-7 -4 -4 -10z"/>
<path d="M4612 191 c7 -11 16 -17 20 -14 10 5 -10 33 -23 33 -5 0 -4 -9 3 -19z"/>
<path d="M4440 4970 c0 -5 5 -10 10 -10 6 0 10 5 10 10 0 6 -4 10 -10 10 -5 0
-10 -4 -10 -10z"/>
<path d="M6272 4890 c0 -14 2 -19 5 -12 2 6 2 18 0 25 -3 6 -5 1 -5 -13z"/>
<path d="M6246 4766 c-9 -19 -28 -39 -46 -46 -16 -7 -35 -18 -41 -26 -6 -8
-22 -14 -35 -14 -12 0 -26 -4 -29 -10 -3 -5 -25 -10 -48 -10 -38 -1 -40 -2
-24 -14 12 -10 14 -15 6 -18 -7 -2 -14 -15 -16 -28 -2 -12 -21 -50 -43 -83
-22 -32 -40 -63 -40 -67 0 -5 -7 -16 -16 -24 -8 -9 -11 -16 -5 -16 14 0 71
-56 71 -70 0 -5 4 -10 9 -10 11 0 51 -66 51 -85 0 -20 14 -26 67 -29 70 -5
104 -16 141 -43 l32 -24 0 325 c0 183 -4 326 -9 326 -5 0 -16 -15 -25 -34z"/>
<path d="M4675 4770 c3 -5 8 -10 11 -10 2 0 4 5 4 10 0 6 -5 10 -11 10 -5 0
-7 -4 -4 -10z"/>
<path d="M5520 4419 c0 -5 5 -7 10 -4 6 3 10 8 10 11 0 2 -4 4 -10 4 -5 0 -10
-5 -10 -11z"/>
<path d="M5491 4404 c0 -11 3 -14 6 -6 3 7 2 16 -1 19 -3 4 -6 -2 -5 -13z"/>
<path d="M5480 4359 c0 -5 5 -7 10 -4 6 3 10 8 10 11 0 2 -4 4 -10 4 -5 0 -10
-5 -10 -11z"/>
<path d="M0 3726 c0 -618 0 -634 19 -629 10 3 32 18 47 34 15 16 32 29 37 29
5 0 17 8 26 19 9 10 27 22 41 26 38 12 60 40 60 80 0 19 -4 35 -10 35 -5 0
-10 7 -10 15 0 17 -20 56 -34 66 -4 4 -6 58 -3 120 4 63 8 213 11 334 3 121 7
256 10 300 4 46 2 72 -2 60 -7 -16 -10 -11 -15 23 -6 31 -12 42 -25 42 -25 0
-92 34 -119 59 -12 12 -25 21 -28 21 -3 0 -5 -285 -5 -634z"/>
<path d="M5535 4350 c-3 -5 -1 -10 4 -10 6 0 11 5 11 10 0 6 -2 10 -4 10 -3 0
-8 -4 -11 -10z"/>
<path d="M5500 4340 c0 -5 5 -10 10 -10 6 0 10 5 10 10 0 6 -4 10 -10 10 -5 0
-10 -4 -10 -10z"/>
<path d="M2958 4329 c-8 -5 16 -9 58 -9 65 0 94 -10 94 -32 0 -12 -314 -10
-327 3 -7 7 -21 6 -48 -5 -20 -9 -42 -13 -48 -9 -6 4 -7 1 -2 -7 4 -7 2 -16
-6 -21 -10 -6 -14 -33 -14 -101 -1 -82 -3 -94 -20 -103 -11 -5 -21 -20 -23
-31 -2 -17 4 -23 27 -27 l29 -6 2 -108 c2 -122 2 -123 -5 -293 -3 -69 -8 -130
-10 -136 -5 -17 -99 -37 -125 -27 -31 13 -59 12 -54 -2 3 -7 -5 -22 -17 -34
-23 -21 -20 -42 3 -23 7 5 44 12 81 13 l68 4 29 -56 c15 -31 35 -79 44 -108
17 -57 60 -147 82 -172 8 -8 14 -21 14 -27 0 -7 4 -12 9 -12 12 0 24 -37 26
-80 4 -76 18 -156 31 -181 7 -15 10 -29 7 -33 -10 -10 -52 -147 -59 -193 -7
-49 19 -166 45 -199 14 -18 16 -35 10 -105 -4 -46 -10 -223 -13 -393 -6 -294
-8 -312 -31 -379 -14 -39 -25 -87 -26 -106 l-1 -36 -15 34 c-8 19 -15 43 -16
53 -1 10 -6 18 -11 18 -5 0 -7 3 -3 6 3 3 -6 36 -20 72 -14 37 -27 78 -29 91
-1 13 -7 28 -13 34 -6 6 -11 23 -11 39 0 28 -30 95 -62 137 -23 30 -23 41 1
41 27 0 32 23 8 36 -30 17 -110 235 -111 305 -1 31 -7 63 -14 72 -7 8 -38 17
-70 21 l-58 7 -13 47 c-17 63 -21 154 -7 149 6 -2 12 -18 14 -35 2 -18 8 -32
13 -32 6 0 7 5 4 10 -4 6 16 10 53 10 36 0 64 5 70 13 6 7 12 76 13 159 3 170
0 178 -69 178 -38 0 -50 -5 -71 -30 -23 -26 -30 -29 -56 -22 -16 4 -34 18 -40
30 -12 26 -85 38 -181 27 -54 -5 -67 -11 -71 -26 -7 -24 -65 -53 -91 -45 -21
7 -30 36 -39 124 -6 63 8 88 39 71 46 -25 219 -14 202 12 -3 5 0 9 5 9 6 0 10
5 8 12 -1 7 8 17 21 23 29 13 28 16 -11 43 l-32 22 67 0 c73 0 93 -11 105 -58
8 -34 19 -42 61 -42 19 0 40 -8 52 -20 12 -12 33 -20 55 -20 l35 0 0 64 c0 35
3 73 6 83 6 15 4 16 -6 6 -11 -10 -17 -9 -32 4 -10 9 -18 23 -18 31 0 9 -6 12
-16 8 -12 -4 -15 -2 -10 9 4 11 -2 15 -27 14 -71 -2 -453 12 -470 17 -11 3
-16 12 -13 20 3 8 1 14 -3 14 -5 0 -17 3 -27 7 -14 5 -16 1 -12 -25 4 -29 2
-32 -29 -38 -18 -3 -36 -10 -39 -16 -9 -14 15 -38 32 -31 16 6 19 -13 3 -23
-6 -3 -15 -1 -19 6 -7 11 -13 10 -34 -3 -14 -9 -32 -17 -40 -17 -8 0 -26 -14
-40 -31 -29 -34 -34 -84 -12 -115 9 -11 12 -30 9 -46 -7 -34 19 -48 46 -24 10
9 21 16 26 16 14 0 -6 -191 -26 -246 -11 -29 -32 -63 -47 -76 -15 -13 -40 -54
-56 -93 -16 -38 -37 -88 -47 -111 -27 -61 -44 -171 -30 -200 6 -13 6 -24 1
-24 -5 0 -12 9 -15 20 -3 11 -11 20 -17 20 -5 0 -7 7 -4 16 5 13 -4 15 -57 15
-34 -1 -72 -1 -84 -1 -12 0 -23 8 -25 17 -2 13 -13 18 -38 18 -27 0 -37 5 -45
23 -5 12 -15 22 -22 22 -8 0 -13 14 -13 40 0 29 4 40 15 40 8 0 15 6 15 13 0
6 20 24 45 40 36 21 58 27 105 27 l60 0 0 40 c0 33 -4 40 -19 40 -10 0 -21 6
-24 13 -7 18 -165 37 -314 37 -65 0 -145 5 -178 10 -33 5 -168 12 -300 15
-132 4 -244 10 -250 14 -5 4 -57 14 -115 20 -58 7 -117 17 -131 23 -15 5 -42
11 -60 14 -19 2 -49 7 -67 10 l-32 6 0 -786 0 -786 40 0 c29 0 40 -4 40 -15 0
-8 6 -15 14 -15 8 0 16 16 20 40 l6 40 64 0 63 0 0 38 -1 37 46 3 c26 2 52 10
58 18 16 18 30 18 30 -1 0 -28 18 -15 25 17 14 65 27 75 97 76 35 0 57 -2 51
-5 -18 -7 -16 -23 2 -23 14 0 17 8 19 55 1 17 10 20 71 23 39 2 72 6 75 9 3 2
6 44 6 91 2 154 -1 142 44 142 42 0 46 5 41 58 -1 17 3 23 16 22 10 -1 61 -2
114 -1 91 1 97 2 103 24 11 42 22 52 41 37 15 -12 19 -12 30 3 10 13 28 17 89
17 54 0 76 -4 76 -12 0 -10 2 -10 9 0 4 8 21 13 37 12 16 -1 51 -2 78 -1 39 1
47 4 42 17 -4 10 -2 13 6 8 7 -5 9 -2 6 8 -4 8 -2 21 2 29 7 11 12 10 28 -4
23 -21 32 -21 48 0 8 12 9 22 2 30 -13 16 9 126 24 117 7 -5 9 1 5 16 -5 18
-3 20 6 11 9 -9 8 -18 -5 -41 -14 -24 -14 -32 -3 -54 13 -24 11 -32 -12 -79
-14 -28 -30 -53 -35 -55 -4 -2 -8 -12 -8 -23 0 -11 -4 -27 -9 -37 -20 -36 -81
-170 -81 -176 0 -3 -18 -43 -39 -88 -21 -46 -69 -150 -106 -233 -64 -144 -80
-179 -130 -290 -13 -27 -44 -97 -70 -155 -52 -116 -47 -106 -210 -450 -64
-135 -119 -251 -122 -257 -4 -10 22 -13 109 -13 l114 0 27 57 c198 436 355
777 480 1043 19 41 61 131 92 200 32 69 75 163 97 210 22 47 56 120 75 163 20
42 42 77 50 77 7 0 25 26 39 58 59 133 62 138 99 139 21 1 36 -4 39 -14 4 -11
2 -13 -9 -9 -8 3 -15 1 -15 -4 0 -6 6 -10 14 -10 9 0 13 -10 11 -30 -1 -17 1
-33 6 -36 5 -3 9 4 9 15 0 40 18 20 24 -26 12 -84 10 -107 -13 -157 -17 -36
-21 -58 -16 -85 10 -59 15 -69 35 -74 20 -5 20 -18 20 -761 l0 -756 115 0 115
0 0 367 c0 201 2 364 4 362 2 -2 13 -101 25 -219 12 -118 28 -276 36 -351 8
-75 15 -141 15 -147 0 -8 34 -12 110 -12 61 0 110 4 110 8 0 5 -5 33 -10 63
-6 30 -19 144 -30 254 -23 237 -73 705 -95 895 -9 74 -20 182 -25 239 -5 58
-14 137 -21 176 -11 70 -9 135 4 105 3 -8 36 -98 72 -200 36 -102 77 -214 90
-250 82 -225 176 -500 177 -516 0 -10 -7 -59 -16 -109 -10 -49 -19 -130 -20
-180 -4 -101 -10 -123 -40 -147 l-20 -16 24 -21 c14 -11 36 -26 50 -32 14 -7
33 -20 43 -29 11 -8 62 -38 115 -66 l97 -52 20 -61 20 -61 69 0 c61 0 67 2 61
18 -29 73 -136 394 -133 398 3 2 38 -90 78 -206 l73 -210 47 0 c26 0 49 3 53
6 3 3 -2 20 -12 37 -10 18 -37 83 -60 145 l-42 112 26 34 c64 84 67 149 21
400 -32 171 -36 186 -47 186 -5 0 -9 16 -9 36 0 33 -25 95 -42 102 -5 2 -8 25
-7 50 2 95 29 129 41 52 8 -58 46 -171 47 -144 1 12 -3 34 -8 50 -5 16 -12 44
-15 62 -10 59 18 13 33 -53 7 -33 18 -74 23 -92 6 -21 6 -39 -2 -52 -9 -17 -8
-20 5 -15 16 7 21 -11 6 -21 -18 -10 28 -99 60 -118 40 -23 60 -21 31 3 -12
10 -22 22 -21 27 1 4 -2 19 -8 33 -6 14 -18 43 -28 65 -9 22 -18 60 -21 85 -6
60 -30 157 -66 265 -27 81 -29 98 -23 170 12 149 33 317 41 323 4 4 5 -3 2
-15 -3 -12 0 -30 7 -40 11 -14 12 -11 7 22 -11 72 -4 475 9 475 5 0 9 7 9 16
0 9 -5 12 -12 8 -8 -5 -9 -2 -3 12 8 19 16 151 16 269 1 58 1 59 9 20 5 -22 9
-55 9 -72 1 -18 4 -33 9 -33 4 0 4 37 1 83 -6 85 -46 222 -78 267 -9 14 -22
39 -29 55 -12 32 -42 159 -42 178 0 22 20 -17 20 -40 0 -13 5 -23 10 -23 6 0
10 7 10 17 0 9 3 13 7 10 16 -16 40 56 52 153 12 98 29 188 46 235 5 14 1 12
-15 -7 -30 -38 -43 -35 -21 5 11 17 22 51 26 74 10 60 25 63 26 6 1 -44 1 -46
10 -18 10 35 19 239 12 278 -10 51 -22 27 -26 -50 -3 -70 -3 -67 -5 27 -1 58
2 99 6 92 26 -40 72 60 52 112 -13 36 -37 23 -49 -27 -8 -38 -9 -33 -10 46 -1
93 0 95 57 88 17 -3 42 60 42 104 0 28 -4 35 -16 33 -10 -2 -19 3 -21 10 -3 7
3 12 14 12 16 0 18 6 15 36 -4 35 -6 36 -37 31 -17 -3 -36 -2 -41 1 -15 11
-34 51 -34 71 0 34 -59 59 -153 64 -47 2 -92 0 -99 -4z m199 -24 c8 -9 13 -18
11 -21 -3 -2 -13 5 -23 16 -21 23 -11 27 12 5z m-87 -107 c0 -7 -5 -20 -10
-28 -7 -12 -12 -12 -22 -2 -9 9 -9 12 0 12 7 0 12 7 12 15 0 8 5 15 10 15 6 0
10 -6 10 -12z m-32 -52 c9 2 31 0 47 -6 24 -8 17 -9 -39 -6 -44 3 -74 9 -84
20 -16 16 -17 16 28 29 9 2 18 -5 23 -18 5 -15 14 -21 25 -19z m92 9 c0 -8 -2
-15 -4 -15 -2 0 -6 7 -10 15 -3 8 -1 15 4 15 6 0 10 -7 10 -15z m-193 -21 c3
-8 -1 -22 -9 -31 -14 -13 -19 -12 -49 16 l-34 30 43 1 c30 0 44 -5 49 -16z
m343 -14 c0 -5 -9 -10 -21 -10 -11 0 -17 5 -14 10 3 6 13 10 21 10 8 0 14 -4
14 -10z m-100 -20 c0 -11 -4 -20 -10 -20 -5 0 -10 9 -10 20 0 11 5 20 10 20 6
0 10 -9 10 -20z m-171 -56 c9 -9 -53 7 -63 17 -5 5 5 4 24 -1 18 -5 35 -12 39
-16z m116 -38 l28 -24 -64 3 c-78 3 -78 3 -59 15 10 6 11 10 3 10 -7 0 -13 5
-13 10 0 21 76 11 105 -14z m-255 -36 c0 -5 -4 -10 -10 -10 -5 0 -10 5 -10 10
0 6 5 10 10 10 6 0 10 -4 10 -10z m-56 -205 c4 -12 -3 -15 -37 -15 -24 0 -48
-5 -55 -12 -16 -16 -15 -3 0 22 16 25 83 28 92 5z m166 -405 c0 -5 -7 -7 -15
-4 -8 4 -15 8 -15 10 0 2 7 4 15 4 8 0 15 -4 15 -10z m105 -296 c-3 -18 -10
-36 -16 -40 -11 -6 -4 69 9 111 6 17 7 15 10 -9 2 -16 1 -44 -3 -62z m-35 -5
c0 -5 -4 -9 -10 -9 -5 0 -10 7 -10 16 0 8 5 12 10 9 6 -3 10 -10 10 -16z
m-812 -16 c-21 -2 -57 -2 -80 0 -24 2 -7 4 37 4 44 0 63 -2 43 -4z m79 1 c-3
-3 -12 -4 -19 -1 -8 3 -5 6 6 6 11 1 17 -2 13 -5z m58 -4 c3 -6 -5 -10 -19
-10 -13 0 -26 -6 -29 -12 -2 -7 -8 -10 -12 -6 -10 10 17 37 37 38 9 0 20 -4
23 -10z m627 -185 c-12 -19 -13 -48 -1 -56 8 -5 8 -12 0 -27 -6 -11 -11 -37
-11 -56 0 -20 -3 -36 -7 -36 -5 0 -18 -3 -30 -6 -17 -5 -24 1 -38 29 -15 32
-15 40 -1 93 15 59 43 95 57 73 4 -7 9 -4 13 7 6 15 9 16 16 4 5 -8 6 -19 2
-25z m46 -89 c-7 -6 -21 -33 -29 -61 l-16 -50 2 50 c1 28 7 61 13 75 6 14 14
43 18 65 l7 40 10 -54 c7 -43 6 -57 -5 -65z m-858 -42 c0 -2 -12 -4 -27 -4
-21 0 -24 3 -14 9 13 8 41 5 41 -5z m235 -14 c3 -5 -3 -10 -14 -10 -12 0 -21
5 -21 10 0 6 6 10 14 10 8 0 18 -4 21 -10z m-249 -77 c0 -43 3 -97 7 -120 6
-41 5 -43 -18 -43 -28 0 -34 20 -23 70 4 19 5 49 2 65 -3 17 -1 43 5 58 7 18
7 27 0 27 -6 0 -7 5 -4 10 3 6 12 10 18 10 8 0 12 -24 13 -77z m-200 -13 c31
-12 23 -27 -16 -30 -48 -4 -51 -2 -38 20 15 23 17 24 54 10z m374 -15 c0 -10
-10 -15 -30 -15 -20 0 -30 5 -30 15 0 10 10 15 30 15 20 0 30 -5 30 -15z m642
-17 c-7 -7 -12 -8 -12 -2 0 6 3 14 7 17 3 4 9 5 12 2 2 -3 -1 -11 -7 -17z
m-1041 -108 c23 -13 25 -39 5 -66 -8 -10 -12 -29 -9 -41 3 -14 1 -23 -6 -23
-6 0 -11 -11 -11 -23 0 -16 -9 -28 -26 -35 -27 -13 -24 -35 4 -25 13 5 14 3 6
-6 -6 -7 -24 -11 -40 -9 -26 3 -29 7 -28 38 1 19 -1 25 -3 13 -2 -13 -11 -23
-20 -23 -13 0 -15 10 -9 65 4 35 10 75 15 87 9 23 9 23 20 -4 6 -17 18 -28 30
-28 11 0 27 -3 37 -7 17 -6 17 -5 1 17 -20 29 -22 51 -5 68 15 15 15 15 39 2z
m-157 -75 c-16 -54 -22 -65 -35 -65 -15 0 -10 39 11 81 27 52 42 42 24 -16z
m378 25 c-1 -7 2 -18 8 -25 13 -16 -14 -28 -42 -19 -14 4 -17 11 -12 27 4 12
12 25 18 29 15 10 32 3 28 -12z m-472 -75 c-7 -9 -15 -13 -17 -11 -6 6 20 36
26 30 2 -2 -2 -10 -9 -19z m1350 0 c0 -8 -2 -15 -4 -15 -2 0 -6 7 -10 15 -3 8
-1 15 4 15 6 0 10 -7 10 -15z m-1316 -10 c3 -8 1 -15 -4 -15 -6 0 -10 7 -10
15 0 8 2 15 4 15 2 0 6 -7 10 -15z m450 -30 c10 -8 16 -20 13 -28 -8 -21 -59
-28 -76 -12 -13 13 -12 17 4 35 21 23 33 25 59 5z m-170 -80 c-4 -8 -17 -15
-30 -15 -17 0 -22 4 -18 15 4 8 17 15 30 15 17 0 22 -4 18 -15z m123 -31 c-3
-3 -12 -4 -19 -1 -8 3 -5 6 6 6 11 1 17 -2 13 -5z m1026 -46 c-3 -18 -10 -40
-15 -48 -7 -11 -8 -8 -4 10 3 14 6 35 6 48 0 12 4 22 10 22 5 0 7 -14 3 -32z
m-1139 -53 c3 -8 1 -15 -4 -15 -6 0 -10 7 -10 15 0 8 2 15 4 15 2 0 6 -7 10
-15z m946 6 c0 -5 -7 -14 -16 -22 -13 -10 -17 -10 -25 2 -14 23 -11 29 16 29
14 0 25 -4 25 -9z m164 -36 c-4 -8 -8 -15 -10 -15 -2 0 -4 7 -4 15 0 8 4 15
10 15 5 0 7 -7 4 -15z m-1597 -27 c-3 -8 -6 -5 -6 6 -1 11 2 17 5 13 3 -3 4
-12 1 -19z m1432 9 c8 -11 7 -18 -7 -31 -22 -19 -32 -12 -32 21 0 25 21 31 39
10z m139 -32 c-6 -14 -13 -23 -15 -21 -5 5 15 46 22 46 3 0 -1 -11 -7 -25z
m-122 -37 c4 -6 -2 -19 -14 -29 -27 -21 -28 -33 -3 -26 10 2 25 1 32 -4 12 -7
11 -11 -2 -25 -22 -22 -57 -10 -65 22 -12 48 30 98 52 62z m65 -71 c-10 -9
-11 -8 -5 6 3 10 9 15 12 12 3 -3 0 -11 -7 -18z m-741 -7 c0 -11 -4 -20 -10
-20 -5 0 -10 9 -10 20 0 11 5 20 10 20 6 0 10 -9 10 -20z m710 -39 c0 -27 -13
-41 -35 -35 -13 3 -26 1 -29 -5 -4 -7 1 -11 14 -11 18 0 20 -4 14 -22 -7 -25
-24 -39 -39 -35 -10 4 -17 82 -10 105 5 14 85 17 85 3z m-1672 -128 c-10 -2
-26 -2 -35 0 -10 3 -2 5 17 5 19 0 27 -2 18 -5z m1596 -27 c-3 -9 -10 -13 -16
-10 -5 3 -4 12 3 20 15 18 22 13 13 -10z m-1323 -63 c-24 -45 -27 -37 -6 14 8
20 18 34 21 30 3 -3 -4 -22 -15 -44z m998 -144 c33 -96 75 -217 94 -269 92
-250 158 -442 163 -472 6 -32 6 -32 -9 -13 -9 11 -17 24 -17 30 0 5 -27 86
-59 180 -208 600 -251 724 -251 731 0 30 28 -36 79 -187z m-12 133 c2 -37 -7
-31 -21 16 -5 15 -3 22 6 22 8 0 14 -14 15 -38z m-1020 -101 c-6 -14 -14 -28
-18 -31 -3 -3 -9 -18 -13 -35 -4 -16 -13 -37 -20 -45 -7 -8 -19 -31 -26 -50
-8 -19 -31 -71 -52 -114 -21 -44 -38 -83 -38 -87 0 -7 -81 -182 -136 -293 -13
-28 -24 -56 -24 -63 0 -7 -5 -13 -10 -13 -6 0 -9 -3 -8 -7 1 -5 -9 -33 -24
-63 -14 -30 -40 -84 -56 -120 -32 -69 -101 -214 -189 -398 -30 -63 -56 -112
-59 -110 -4 5 45 123 106 253 23 50 48 106 55 125 7 19 34 80 60 135 66 140
82 175 265 580 90 198 168 366 173 373 17 21 27 -7 14 -37z m1061 19 c-7 -10
-14 -17 -17 -15 -4 4 18 35 25 35 2 0 -1 -9 -8 -20z m-418 -4 c0 -3 -4 -8 -10
-11 -5 -3 -10 -1 -10 4 0 6 5 11 10 11 6 0 10 -2 10 -4z m464 -141 c3 -8 1
-15 -4 -15 -6 0 -10 7 -10 15 0 8 2 15 4 15 2 0 6 -7 10 -15z m59 -142 c-22
-8 -14 -40 13 -62 15 -12 21 -21 14 -21 -22 0 -50 31 -50 55 0 24 8 35 24 34
6 0 5 -3 -1 -6z m367 -443 l-11 -25 6 25 c2 14 5 36 6 50 l2 25 4 -25 c2 -14
-1 -37 -7 -50z m-196 -210 c5 -20 3 -19 -8 5 -7 17 -16 41 -20 55 -5 20 -3 19
8 -5 7 -16 16 -41 20 -55z m25 -75 c0 -5 -4 -3 -9 5 -5 8 -9 22 -9 30 0 16 17
-16 18 -35z m-2049 -473 c0 -5 -7 -17 -15 -28 -14 -18 -14 -17 -4 9 12 27 19
34 19 19z"/>
<path d="M1851 2354 c0 -11 3 -14 6 -6 3 7 2 16 -1 19 -3 4 -6 -2 -5 -13z"/>
<path d="M5525 4310 c3 -5 8 -10 11 -10 2 0 4 5 4 10 0 6 -5 10 -11 10 -5 0
-7 -4 -4 -10z"/>
<path d="M5250 4300 c0 -5 5 -10 10 -10 6 0 10 5 10 10 0 6 -4 10 -10 10 -5 0
-10 -4 -10 -10z"/>
<path d="M5570 4296 c0 -4 7 -14 15 -22 8 -9 15 -11 15 -6 0 5 -7 15 -15 22
-8 7 -15 9 -15 6z"/>
<path d="M5620 4269 c0 -5 5 -7 10 -4 6 3 10 8 10 11 0 2 -4 4 -10 4 -5 0 -10
-5 -10 -11z"/>
<path d="M5675 4260 c-3 -5 -1 -10 4 -10 6 0 11 5 11 10 0 6 -2 10 -4 10 -3 0
-8 -4 -11 -10z"/>
<path d="M5560 4249 c0 -5 5 -7 10 -4 6 3 10 8 10 11 0 2 -4 4 -10 4 -5 0 -10
-5 -10 -11z"/>
<path d="M5245 4240 c3 -5 8 -10 11 -10 2 0 4 5 4 10 0 6 -5 10 -11 10 -5 0
-7 -4 -4 -10z"/>
<path d="M5605 4230 c-3 -5 1 -10 9 -10 9 0 16 5 16 10 0 6 -4 10 -9 10 -6 0
-13 -4 -16 -10z"/>
<path d="M3263 4223 c9 -2 23 -2 30 0 6 3 -1 5 -18 5 -16 0 -22 -2 -12 -5z"/>
<path d="M5575 4220 c-3 -5 -1 -10 4 -10 6 0 11 5 11 10 0 6 -2 10 -4 10 -3 0
-8 -4 -11 -10z"/>
<path d="M5660 4209 c0 -5 5 -7 10 -4 6 3 10 8 10 11 0 2 -4 4 -10 4 -5 0 -10
-5 -10 -11z"/>
<path d="M5590 4191 c0 -6 5 -13 10 -16 6 -3 10 1 10 9 0 9 -4 16 -10 16 -5 0
-10 -4 -10 -9z"/>
<path d="M5680 4190 c0 -5 5 -10 10 -10 6 0 10 5 10 10 0 6 -4 10 -10 10 -5 0
-10 -4 -10 -10z"/>
<path d="M5526 4172 c-4 -7 2 -22 13 -34 12 -12 21 -25 21 -30 0 -4 5 -8 11
-8 6 0 8 9 4 20 -5 16 -3 19 11 13 12 -4 15 -2 12 8 -3 8 -13 13 -22 11 -10
-2 -23 4 -30 14 -9 12 -15 14 -20 6z"/>
<path d="M5640 4170 c0 -5 5 -10 10 -10 6 0 10 5 10 10 0 6 -4 10 -10 10 -5 0
-10 -4 -10 -10z"/>
<path d="M5515 4130 c-3 -5 -1 -10 4 -10 6 0 11 5 11 10 0 6 -2 10 -4 10 -3 0
-8 -4 -11 -10z"/>
<path d="M5600 4125 c-11 -13 -8 -14 19 -9 25 5 31 3 31 -11 0 -10 3 -16 6
-12 3 3 3 15 -1 26 -7 24 -37 28 -55 6z"/>
<path d="M5687 4123 c-4 -3 -7 -11 -7 -17 0 -6 5 -5 12 2 6 6 9 14 7 17 -3 3
-9 2 -12 -2z"/>
<path d="M1685 4110 c-3 -5 -1 -10 4 -10 6 0 11 5 11 10 0 6 -2 10 -4 10 -3 0
-8 -4 -11 -10z"/>
<path d="M1760 4110 c-18 -12 -2 -12 25 0 13 6 15 9 5 9 -8 0 -22 -4 -30 -9z"/>
<path d="M1858 4106 c20 -12 232 -19 232 -8 0 10 -9 11 -142 14 -68 2 -101 0
-90 -6z"/>
<path d="M2101 4104 c0 -11 3 -14 6 -6 3 7 2 16 -1 19 -3 4 -6 -2 -5 -13z"/>
<path d="M5530 4100 c0 -5 5 -10 10 -10 6 0 10 5 10 10 0 6 -4 10 -10 10 -5 0
-10 -4 -10 -10z"/>
<path d="M5610 4090 c0 -5 5 -10 10 -10 6 0 10 5 10 10 0 6 -4 10 -10 10 -5 0
-10 -4 -10 -10z"/>
<path d="M5700 4090 c0 -5 5 -10 10 -10 6 0 10 5 10 10 0 6 -4 10 -10 10 -5 0
-10 -4 -10 -10z"/>
<path d="M1300 4071 c0 -17 34 -22 49 -6 14 13 12 15 -17 15 -18 0 -32 -4 -32
-9z"/>
<path d="M1408 4073 c-3 -4 -2 -19 2 -33 4 -17 8 -21 14 -12 4 6 4 12 -1 12
-4 1 6 7 22 15 18 8 23 14 13 14 -9 1 -23 4 -31 7 -8 3 -17 2 -19 -3z"/>
<path d="M5665 4070 c-3 -5 -1 -10 4 -10 6 0 11 5 11 10 0 6 -2 10 -4 10 -3 0
-8 -4 -11 -10z"/>
<path d="M5550 4060 c0 -5 5 -10 10 -10 6 0 10 5 10 10 0 6 -4 10 -10 10 -5 0
-10 -4 -10 -10z"/>
<path d="M5630 4060 c0 -5 5 -10 10 -10 6 0 10 5 10 10 0 6 -4 10 -10 10 -5 0
-10 -4 -10 -10z"/>
<path d="M5720 4059 c0 -5 5 -7 10 -4 6 3 10 8 10 11 0 2 -4 4 -10 4 -5 0 -10
-5 -10 -11z"/>
<path d="M1745 4050 c-3 -5 1 -10 9 -10 9 0 16 5 16 10 0 6 -4 10 -9 10 -6 0
-13 -4 -16 -10z"/>
<path d="M5595 4051 c-3 -5 -1 -12 5 -16 5 -3 10 1 10 9 0 18 -6 21 -15 7z"/>
<path d="M2431 4024 c0 -11 3 -14 6 -6 3 7 2 16 -1 19 -3 4 -6 -2 -5 -13z"/>
<path d="M5615 4030 c-4 -7 -2 -16 5 -20 6 -4 12 -11 13 -16 2 -20 23 -31 45
-23 29 11 28 17 -1 12 -19 -4 -27 2 -39 27 -10 21 -18 28 -23 20z"/>
<path d="M5650 4029 c0 -5 5 -7 10 -4 6 3 10 8 10 11 0 2 -4 4 -10 4 -5 0 -10
-5 -10 -11z"/>
<path d="M5530 4019 c0 -5 5 -7 10 -4 6 3 10 8 10 11 0 2 -4 4 -10 4 -5 0 -10
-5 -10 -11z"/>
<path d="M5580 4016 c0 -9 5 -16 10 -16 6 0 10 4 10 9 0 6 -4 13 -10 16 -5 3
-10 -1 -10 -9z"/>
<path d="M5705 3970 c-3 -5 -1 -10 4 -10 6 0 11 5 11 10 0 6 -2 10 -4 10 -3 0
-8 -4 -11 -10z"/>
<path d="M2428 3926 c-12 -74 -10 -162 2 -150 7 7 10 49 8 105 -3 84 -4 89
-10 45z"/>
<path d="M5610 3949 c0 -5 5 -7 10 -4 6 3 10 8 10 11 0 2 -4 4 -10 4 -5 0 -10
-5 -10 -11z"/>
<path d="M3247 3930 c3 -11 7 -20 9 -20 2 0 4 9 4 20 0 11 -4 20 -9 20 -5 0
-7 -9 -4 -20z"/>
<path d="M5670 3939 c0 -5 5 -7 10 -4 6 3 10 8 10 11 0 2 -4 4 -10 4 -5 0 -10
-5 -10 -11z"/>
<path d="M5655 3910 c-3 -5 -1 -10 4 -10 6 0 11 5 11 10 0 6 -2 10 -4 10 -3 0
-8 -4 -11 -10z"/>
<path d="M5620 3903 c0 -5 8 -17 17 -28 14 -18 15 -18 9 -2 -3 10 -6 23 -6 28
0 5 -4 9 -10 9 -5 0 -10 -3 -10 -7z"/>
<path d="M5570 3840 c0 -5 5 -10 10 -10 6 0 10 5 10 10 0 6 -4 10 -10 10 -5 0
-10 -4 -10 -10z"/>
<path d="M2271 3824 c0 -11 3 -14 6 -6 3 7 2 16 -1 19 -3 4 -6 -2 -5 -13z"/>
<path d="M5330 3819 c0 -5 5 -7 10 -4 6 3 10 8 10 11 0 2 -4 4 -10 4 -5 0 -10
-5 -10 -11z"/>
<path d="M5560 3799 c0 -5 5 -7 10 -4 6 3 10 8 10 11 0 2 -4 4 -10 4 -5 0 -10
-5 -10 -11z"/>
<path d="M5580 3780 c0 -5 5 -10 10 -10 6 0 10 5 10 10 0 6 -4 10 -10 10 -5 0
-10 -4 -10 -10z"/>
<path d="M2421 3643 c-1 -57 3 -103 7 -103 11 0 13 156 2 183 -6 15 -9 -10 -9
-80z"/>
<path d="M1732 3535 c0 -16 2 -22 5 -12 2 9 2 23 0 30 -3 6 -5 -1 -5 -18z"/>
<path d="M2321 3314 c-11 -8 -21 -23 -21 -32 0 -12 3 -13 12 -4 7 7 24 12 38
12 14 0 31 -5 38 -12 9 -9 12 -8 12 4 0 33 -49 53 -79 32z"/>
<path d="M2271 3212 c1 -15 1 -31 -1 -37 -4 -16 12 -55 22 -55 6 0 8 7 4 15
-6 16 3 19 29 9 13 -5 14 -8 3 -15 -8 -6 -1 -9 22 -9 34 0 34 0 12 16 -25 17
-29 34 -7 34 8 0 15 5 15 10 0 6 -11 10 -24 10 -12 0 -35 11 -50 25 l-26 24 1
-27z"/>
<path d="M2392 3201 c2 -7 7 -12 11 -12 12 1 9 15 -3 20 -7 2 -11 -2 -8 -8z"/>
<path d="M2375 3160 c-3 -5 -1 -10 4 -10 6 0 11 5 11 10 0 6 -2 10 -4 10 -3 0
-8 -4 -11 -10z"/>
<path d="M2410 3130 c0 -5 5 -10 10 -10 6 0 10 5 10 10 0 6 -4 10 -10 10 -5 0
-10 -4 -10 -10z"/>
<path d="M5100 2850 c0 -5 5 -10 11 -10 5 0 7 5 4 10 -3 6 -8 10 -11 10 -2 0
-4 -4 -4 -10z"/>
<path d="M1951 2794 c0 -11 3 -14 6 -6 3 7 2 16 -1 19 -3 4 -6 -2 -5 -13z"/>
<path d="M3801 2794 c0 -11 3 -14 6 -6 3 7 2 16 -1 19 -3 4 -6 -2 -5 -13z"/>
<path d="M3803 2730 c0 -25 2 -35 4 -22 2 12 2 32 0 45 -2 12 -4 2 -4 -23z"/>
<path d="M3970 2706 c0 -14 -4 -28 -10 -31 -15 -9 -12 -23 8 -34 15 -8 17 -4
17 40 0 27 -3 49 -7 49 -5 0 -8 -11 -8 -24z"/>
<path d="M3957 2581 c-3 -11 -1 -23 3 -26 14 -8 22 13 12 31 -8 14 -10 14 -15
-5z"/>
<path d="M3941 2487 c-11 -52 -11 -61 5 -78 22 -25 34 -24 34 1 0 11 6 23 13
26 23 8 6 84 -18 84 -7 0 -15 6 -18 13 -2 6 -10 -14 -16 -46z m29 -28 c0 -10
-4 -19 -10 -19 -5 0 -10 12 -10 26 0 14 4 23 10 19 6 -3 10 -15 10 -26z"/>
<path d="M3617 2502 c2 -15 0 -21 -3 -14 -3 6 -15 12 -25 12 -11 0 -17 5 -14
10 3 6 -3 10 -14 10 -11 0 -24 -8 -30 -17 -9 -17 -10 -17 -16 0 -11 26 -32 20
-43 -13 -12 -33 2 -153 19 -158 5 -2 9 -10 9 -17 0 -7 8 -12 18 -10 9 1 23 -2
30 -8 9 -7 16 -6 25 3 9 10 9 11 0 6 -8 -5 -13 -1 -13 9 0 10 5 13 11 9 9 -5
10 1 5 20 -5 22 -3 29 12 32 13 4 23 24 35 69 20 76 20 72 4 78 -10 4 -13 -2
-10 -21z m-77 -158 c0 -8 -4 -12 -10 -9 -5 3 -10 1 -10 -5 0 -6 -4 -9 -10 -5
-13 8 -1 35 16 35 8 0 14 -7 14 -16z"/>
<path d="M5100 2520 c0 -5 5 -10 10 -10 6 0 10 5 10 10 0 6 -4 10 -10 10 -5 0
-10 -4 -10 -10z"/>
<path d="M5138 2523 c7 -3 16 -2 19 1 4 3 -2 6 -13 5 -11 0 -14 -3 -6 -6z"/>
<path d="M3791 2488 c0 -15 -5 -38 -11 -52 -5 -14 -11 -51 -14 -83 -10 -110
-17 -167 -21 -173 -2 -3 0 -12 5 -20 8 -12 10 -12 13 0 12 40 27 130 27 156
-1 16 3 45 8 64 5 19 5 58 2 85 -4 28 -8 38 -9 23z"/>
<path d="M3310 2484 c0 -8 5 -12 10 -9 6 4 8 11 5 16 -9 14 -15 11 -15 -7z"/>
<path d="M5210 2435 c-24 -14 -24 -14 -3 -15 28 0 53 10 53 21 0 13 -21 10
-50 -6z"/>
<path d="M1630 2429 c0 -5 5 -7 10 -4 6 3 10 8 10 11 0 2 -4 4 -10 4 -5 0 -10
-5 -10 -11z"/>
<path d="M5150 2410 c0 -5 4 -10 9 -10 6 0 13 5 16 10 3 6 -1 10 -9 10 -9 0
-16 -4 -16 -10z"/>
<path d="M3210 2385 c0 -8 5 -15 10 -15 6 0 10 7 10 15 0 8 -4 15 -10 15 -5 0
-10 -7 -10 -15z"/>
<path d="M3441 2384 c0 -11 3 -14 6 -6 3 7 2 16 -1 19 -3 4 -6 -2 -5 -13z"/>
<path d="M3640 2381 c-6 -12 -7 -21 -1 -21 10 0 24 30 17 37 -2 3 -9 -5 -16
-16z"/>
<path d="M3925 2390 c-3 -5 -1 -10 4 -10 6 0 11 5 11 10 0 6 -2 10 -4 10 -3 0
-8 -4 -11 -10z"/>
<path d="M3642 2295 c0 -16 2 -22 5 -12 2 9 2 23 0 30 -3 6 -5 -1 -5 -18z"/>
<path d="M3205 2260 c-4 -12 -5 -24 -2 -27 3 -2 8 5 12 17 4 12 5 24 2 27 -3
2 -8 -5 -12 -17z"/>
<path d="M5620 2219 c0 -5 5 -7 10 -4 6 3 10 8 10 11 0 2 -4 4 -10 4 -5 0 -10
-5 -10 -11z"/>
<path d="M5770 2196 c0 -2 8 -10 18 -17 15 -13 16 -12 3 4 -13 16 -21 21 -21
13z"/>
<path d="M2520 2166 c0 -8 4 -17 9 -20 5 -4 7 3 4 14 -6 23 -13 26 -13 6z"/>
<path d="M3200 2145 c0 -8 4 -15 10 -15 5 0 7 7 4 15 -4 8 -8 15 -10 15 -2 0
-4 -7 -4 -15z"/>
<path d="M5685 1990 c3 -5 8 -10 11 -10 2 0 4 5 4 10 0 6 -5 10 -11 10 -5 0
-7 -4 -4 -10z"/>
<path d="M2635 1970 c-3 -5 -1 -10 4 -10 6 0 11 5 11 10 0 6 -2 10 -4 10 -3 0
-8 -4 -11 -10z"/>
<path d="M2616 1940 c7 -38 11 -46 19 -38 3 3 -2 20 -10 39 l-16 34 7 -35z"/>
<path d="M3725 1930 c-3 -5 -1 -10 4 -10 6 0 11 5 11 10 0 6 -2 10 -4 10 -3 0
-8 -4 -11 -10z"/>
<path d="M1905 1920 c-3 -5 -1 -10 4 -10 6 0 11 5 11 10 0 6 -2 10 -4 10 -3 0
-8 -4 -11 -10z"/>
<path d="M3392 1864 c4 -21 22 -23 26 -1 2 10 -3 17 -13 17 -10 0 -15 -6 -13
-16z"/>
<path d="M1551 1824 c0 -11 3 -14 6 -6 3 7 2 16 -1 19 -3 4 -6 -2 -5 -13z"/>
<path d="M1816 1754 c-4 -9 -4 -19 -1 -22 2 -3 7 3 11 12 4 9 4 19 1 22 -2 3
-7 -3 -11 -12z"/>
<path d="M3500 1709 c0 -5 5 -7 10 -4 6 3 10 8 10 11 0 2 -4 4 -10 4 -5 0 -10
-5 -10 -11z"/>
<path d="M1200 1680 c0 -5 18 -10 40 -10 22 0 40 5 40 10 0 6 -18 10 -40 10
-22 0 -40 -4 -40 -10z"/>
<path d="M2402 1630 c0 -14 2 -19 5 -12 2 6 2 18 0 25 -3 6 -5 1 -5 -13z"/>
<path d="M3601 1604 c-7 -20 -11 -38 -8 -40 3 -3 10 11 17 31 16 47 8 55 -9 9z"/>
<path d="M834 1608 c-11 -18 8 -26 42 -18 50 12 51 17 4 22 -23 2 -44 0 -46
-4z"/>
<path d="M5216 1598 c3 -5 10 -6 15 -3 13 9 11 12 -6 12 -8 0 -12 -4 -9 -9z"/>
<path d="M5288 1580 c18 -18 36 -29 39 -26 4 3 4 7 2 9 -2 1 -20 13 -39 26
l-35 23 33 -32z"/>
<path d="M5245 1570 c4 -6 11 -8 16 -5 14 9 11 15 -7 15 -8 0 -12 -5 -9 -10z"/>
<path d="M5360 1532 c0 -5 7 -15 15 -22 8 -7 15 -9 15 -6 0 4 -7 14 -15 22 -8
9 -15 11 -15 6z"/>
<path d="M5280 1519 c0 -5 5 -7 10 -4 6 3 10 8 10 11 0 2 -4 4 -10 4 -5 0 -10
-5 -10 -11z"/>
<path d="M6024 1495 c11 -8 22 -12 25 -9 6 6 -19 24 -34 24 -5 -1 -1 -7 9 -15z"/>
<path d="M6250 1490 c0 -5 5 -10 10 -10 6 0 10 5 10 10 0 6 -4 10 -10 10 -5 0
-10 -4 -10 -10z"/>
<path d="M5315 1480 c-3 -5 -1 -10 4 -10 6 0 11 5 11 10 0 6 -2 10 -4 10 -3 0
-8 -4 -11 -10z"/>
<path d="M5225 1460 c-3 -5 -1 -10 4 -10 6 0 11 5 11 10 0 6 -2 10 -4 10 -3 0
-8 -4 -11 -10z"/>
<path d="M6130 1440 c0 -5 5 -10 10 -10 6 0 10 5 10 10 0 6 -4 10 -10 10 -5 0
-10 -4 -10 -10z"/>
<path d="M5250 1399 c0 -5 5 -7 10 -4 6 3 10 8 10 11 0 2 -4 4 -10 4 -5 0 -10
-5 -10 -11z"/>
<path d="M6175 1390 c-3 -5 1 -10 10 -10 9 0 13 5 10 10 -3 6 -8 10 -10 10 -2
0 -7 -4 -10 -10z"/>
<path d="M6250 1360 c0 -5 5 -10 10 -10 6 0 10 5 10 10 0 6 -4 10 -10 10 -5 0
-10 -4 -10 -10z"/>
<path d="M3662 1329 c2 -7 10 -15 17 -17 8 -3 12 1 9 9 -2 7 -10 15 -17 17 -8
3 -12 -1 -9 -9z"/>
<path d="M5730 1319 c0 -5 5 -7 10 -4 6 3 10 8 10 11 0 2 -4 4 -10 4 -5 0 -10
-5 -10 -11z"/>
<path d="M5235 1310 c-3 -5 -1 -10 4 -10 6 0 11 5 11 10 0 6 -2 10 -4 10 -3 0
-8 -4 -11 -10z"/>
<path d="M596 1292 c-13 -12 -5 -22 19 -22 14 0 25 4 25 9 0 10 -36 21 -44 13z"/>
<path d="M6070 1290 c0 -5 5 -10 10 -10 6 0 10 5 10 10 0 6 -4 10 -10 10 -5 0
-10 -4 -10 -10z"/>
<path d="M6235 1290 c3 -5 8 -10 11 -10 2 0 4 5 4 10 0 6 -5 10 -11 10 -5 0
-7 -4 -4 -10z"/>
<path d="M3197 1284 c-6 -10 9 -42 16 -34 3 3 1 14 -3 24 -3 11 -9 15 -13 10z"/>
<path d="M5200 1279 c0 -5 5 -7 10 -4 6 3 10 8 10 11 0 2 -4 4 -10 4 -5 0 -10
-5 -10 -11z"/>
<path d="M3817 1273 c-3 -3 -3 -11 0 -19 7 -18 33 -18 33 0 0 14 -24 29 -33
19z"/>
<path d="M6145 1260 c3 -5 8 -10 11 -10 2 0 4 5 4 10 0 6 -5 10 -11 10 -5 0
-7 -4 -4 -10z"/>
<path d="M3328 1240 c12 -12 22 -29 22 -40 0 -27 16 -33 35 -14 15 15 15 18
-2 33 -43 37 -93 56 -55 21z"/>
<path d="M3210 1227 c0 -17 35 -154 48 -187 32 -82 78 -164 102 -182 16 -11
26 -26 23 -34 -2 -7 5 -17 16 -24 12 -6 21 -17 21 -24 0 -16 30 -26 78 -26 20
0 32 5 32 13 0 7 -15 18 -32 25 -52 19 -168 139 -168 174 0 7 -9 24 -20 38
-11 14 -20 37 -20 53 0 15 -4 27 -9 27 -5 0 -15 26 -21 57 -7 31 -17 67 -23
80 -11 25 -27 31 -27 10z"/>
<path d="M6220 1230 c0 -5 5 -10 10 -10 6 0 10 5 10 10 0 6 -4 10 -10 10 -5 0
-10 -4 -10 -10z"/>
<path d="M6255 1220 c3 -5 8 -10 11 -10 2 0 4 5 4 10 0 6 -5 10 -11 10 -5 0
-7 -4 -4 -10z"/>
<path d="M3841 1204 c0 -11 3 -14 6 -6 3 7 2 16 -1 19 -3 4 -6 -2 -5 -13z"/>
<path d="M6205 1170 c3 -5 11 -10 16 -10 6 0 7 5 4 10 -3 6 -11 10 -16 10 -6
0 -7 -4 -4 -10z"/>
<path d="M3851 1144 c0 -11 3 -14 6 -6 3 7 2 16 -1 19 -3 4 -6 -2 -5 -13z"/>
<path d="M3550 1115 c13 -14 30 -23 38 -20 8 3 21 0 28 -6 10 -8 14 -8 14 -1
0 14 -33 32 -59 32 -12 0 -21 5 -21 10 0 6 -5 10 -12 10 -6 0 -1 -11 12 -25z"/>
<path d="M6155 1120 c3 -5 8 -10 11 -10 2 0 4 5 4 10 0 6 -5 10 -11 10 -5 0
-7 -4 -4 -10z"/>
<path d="M6190 1110 c0 -5 5 -10 10 -10 6 0 10 5 10 10 0 6 -4 10 -10 10 -5 0
-10 -4 -10 -10z"/>
<path d="M5155 1100 c-3 -5 -1 -10 4 -10 6 0 11 5 11 10 0 6 -2 10 -4 10 -3 0
-8 -4 -11 -10z"/>
<path d="M6230 1100 c0 -5 5 -10 11 -10 5 0 7 5 4 10 -3 6 -8 10 -11 10 -2 0
-4 -4 -4 -10z"/>
<path d="M6265 1080 c3 -5 8 -10 11 -10 2 0 4 5 4 10 0 6 -5 10 -11 10 -5 0
-7 -4 -4 -10z"/>
<path d="M6140 1060 c0 -5 5 -10 11 -10 5 0 7 5 4 10 -3 6 -8 10 -11 10 -2 0
-4 -4 -4 -10z"/>
<path d="M6175 1050 c-3 -5 1 -10 10 -10 9 0 13 5 10 10 -3 6 -8 10 -10 10 -2
0 -7 -4 -10 -10z"/>
<path d="M6215 1030 c3 -5 8 -10 11 -10 2 0 4 5 4 10 0 6 -5 10 -11 10 -5 0
-7 -4 -4 -10z"/>
<path d="M6095 1010 c3 -5 8 -10 11 -10 2 0 4 5 4 10 0 6 -5 10 -11 10 -5 0
-7 -4 -4 -10z"/>
<path d="M6130 1000 c0 -5 5 -10 11 -10 5 0 7 5 4 10 -3 6 -8 10 -11 10 -2 0
-4 -4 -4 -10z"/>
<path d="M6162 991 c2 -7 7 -12 11 -12 12 1 9 15 -3 20 -7 2 -11 -2 -8 -8z"/>
<path d="M3160 975 c0 -8 4 -15 10 -15 5 0 7 7 4 15 -4 8 -8 15 -10 15 -2 0
-4 -7 -4 -15z"/>
<path d="M6200 970 c0 -5 5 -10 10 -10 6 0 10 5 10 10 0 6 -4 10 -10 10 -5 0
-10 -4 -10 -10z"/>
<path d="M5060 960 c0 -5 5 -10 10 -10 6 0 10 5 10 10 0 6 -4 10 -10 10 -5 0
-10 -4 -10 -10z"/>
<path d="M6235 960 c-3 -5 -1 -10 4 -10 6 0 11 5 11 10 0 6 -2 10 -4 10 -3 0
-8 -4 -11 -10z"/>
<path d="M6265 950 c3 -5 8 -10 11 -10 2 0 4 5 4 10 0 6 -5 10 -11 10 -5 0 -7
-4 -4 -10z"/>
<path d="M4920 924 c0 -8 5 -12 10 -9 6 4 8 11 5 16 -9 14 -15 11 -15 -7z"/>
<path d="M5125 930 c-3 -5 -1 -10 4 -10 6 0 11 5 11 10 0 6 -2 10 -4 10 -3 0
-8 -4 -11 -10z"/>
<path d="M6115 930 c3 -5 8 -10 11 -10 2 0 4 5 4 10 0 6 -5 10 -11 10 -5 0 -7
-4 -4 -10z"/>
<path d="M4880 919 c0 -5 5 -7 10 -4 6 3 10 8 10 11 0 2 -4 4 -10 4 -5 0 -10
-5 -10 -11z"/>
<path d="M6150 920 c0 -5 5 -10 10 -10 6 0 10 5 10 10 0 6 -4 10 -10 10 -5 0
-10 -4 -10 -10z"/>
<path d="M6190 909 c0 -5 5 -7 10 -4 6 3 10 8 10 11 0 2 -4 4 -10 4 -5 0 -10
-5 -10 -11z"/>
<path d="M6220 900 c0 -5 5 -10 11 -10 5 0 7 5 4 10 -3 6 -8 10 -11 10 -2 0
-4 -4 -4 -10z"/>
<path d="M4890 890 c0 -5 7 -10 16 -10 8 0 12 5 9 10 -3 6 -10 10 -16 10 -5 0
-9 -4 -9 -10z"/>
<path d="M5060 879 c0 -5 5 -7 10 -4 6 3 10 8 10 11 0 2 -4 4 -10 4 -5 0 -10
-5 -10 -11z"/>
<path d="M6255 880 c3 -5 8 -10 11 -10 2 0 4 5 4 10 0 6 -5 10 -11 10 -5 0 -7
-4 -4 -10z"/>
<path d="M4880 860 c0 -5 5 -10 11 -10 5 0 7 5 4 10 -3 6 -8 10 -11 10 -2 0
-4 -4 -4 -10z"/>
<path d="M5030 859 c0 -5 5 -7 10 -4 6 3 10 8 10 11 0 2 -4 4 -10 4 -5 0 -10
-5 -10 -11z"/>
<path d="M6105 860 c3 -5 8 -10 11 -10 2 0 4 5 4 10 0 6 -5 10 -11 10 -5 0 -7
-4 -4 -10z"/>
<path d="M6140 856 c0 -9 5 -16 10 -16 6 0 10 4 10 9 0 6 -4 13 -10 16 -5 3
-10 -1 -10 -9z"/>
<path d="M4835 839 c-4 -6 -5 -12 -2 -15 2 -3 7 2 10 11 7 17 1 20 -8 4z"/>
<path d="M6170 840 c0 -5 5 -10 10 -10 6 0 10 5 10 10 0 6 -4 10 -10 10 -5 0
-10 -4 -10 -10z"/>
<path d="M4900 830 c-8 -5 -12 -12 -9 -15 4 -3 12 1 19 10 14 17 11 19 -10 5z"/>
<path d="M5030 820 c0 -5 5 -10 10 -10 6 0 10 5 10 10 0 6 -4 10 -10 10 -5 0
-10 -4 -10 -10z"/>
<path d="M6240 820 c0 -5 5 -10 11 -10 5 0 7 5 4 10 -3 6 -8 10 -11 10 -2 0
-4 -4 -4 -10z"/>
<path d="M6271 804 c0 -11 3 -14 6 -6 3 7 2 16 -1 19 -3 4 -6 -2 -5 -13z"/>
<path d="M6090 800 c0 -5 5 -10 11 -10 5 0 7 5 4 10 -3 6 -8 10 -11 10 -2 0
-4 -4 -4 -10z"/>
<path d="M3330 780 c0 -11 7 -20 15 -20 17 0 18 2 9 24 -9 23 -24 20 -24 -4z"/>
<path d="M6130 786 c0 -9 5 -16 10 -16 6 0 10 4 10 9 0 6 -4 13 -10 16 -5 3
-10 -1 -10 -9z"/>
<path d="M4805 779 c-4 -6 -5 -12 -2 -15 2 -3 7 2 10 11 7 17 1 20 -8 4z"/>
<path d="M5030 779 c0 -5 5 -7 10 -4 6 3 10 8 10 11 0 2 -4 4 -10 4 -5 0 -10
-5 -10 -11z"/>
<path d="M3550 769 c0 -5 9 -9 20 -9 11 0 20 2 20 4 0 2 -9 6 -20 9 -11 3 -20
1 -20 -4z"/>
<path d="M6165 770 c3 -5 8 -10 11 -10 2 0 4 5 4 10 0 6 -5 10 -11 10 -5 0 -7
-4 -4 -10z"/>
<path d="M6195 771 c-3 -5 -1 -12 5 -16 5 -3 10 1 10 9 0 18 -6 21 -15 7z"/>
<path d="M4860 759 c0 -5 5 -7 10 -4 6 3 10 8 10 11 0 2 -4 4 -10 4 -5 0 -10
-5 -10 -11z"/>
<path d="M5636 761 c-4 -7 -5 -15 -2 -18 9 -9 19 4 14 18 -4 11 -6 11 -12 0z"/>
<path d="M5185 740 c-3 -5 -1 -10 4 -10 6 0 11 5 11 10 0 6 -2 10 -4 10 -3 0
-8 -4 -11 -10z"/>
<path d="M6260 740 c0 -5 5 -10 10 -10 6 0 10 5 10 10 0 6 -4 10 -10 10 -5 0
-10 -4 -10 -10z"/>
<path d="M4880 730 c0 -5 5 -10 11 -10 5 0 7 5 4 10 -3 6 -8 10 -11 10 -2 0
-4 -4 -4 -10z"/>
<path d="M5700 729 c0 -8 6 -26 14 -41 8 -14 20 -43 27 -65 l12 -38 15 45 c13
37 13 45 1 49 -8 2 -26 18 -41 34 -16 16 -28 23 -28 16z"/>
<path d="M5604 715 c-19 -14 -18 -14 4 -15 13 0 22 6 22 15 0 19 -1 19 -26 0z"/>
<path d="M6155 700 c3 -5 8 -10 11 -10 2 0 4 5 4 10 0 6 -5 10 -11 10 -5 0 -7
-4 -4 -10z"/>
<path d="M6190 694 c0 -8 5 -12 10 -9 6 4 8 11 5 16 -9 14 -15 11 -15 -7z"/>
<path d="M4995 690 c3 -5 10 -10 16 -10 5 0 9 5 9 10 0 6 -7 10 -16 10 -8 0
-12 -4 -9 -10z"/>
<path d="M5676 678 c4 -13 7 -48 6 -78 -1 -33 3 -57 11 -62 9 -6 9 -10 -3 -17
-22 -15 -5 -24 19 -11 16 8 21 8 21 -1 0 -7 2 -10 5 -8 8 9 -7 49 -16 43 -12
-7 -16 8 -24 89 -4 37 -11 67 -16 67 -6 0 -7 -9 -3 -22z"/>
<path d="M6220 690 c0 -4 9 -10 20 -13 11 -3 20 -2 20 3 0 4 -9 10 -20 13 -11
3 -20 2 -20 -3z"/>
<path d="M4805 670 c-3 -5 -1 -10 4 -10 6 0 11 5 11 10 0 6 -2 10 -4 10 -3 0
-8 -4 -11 -10z"/>
<path d="M5555 657 c-19 -28 -19 -41 1 -33 21 8 74 -21 75 -42 0 -12 3 -10 10
7 5 13 7 38 3 56 -5 28 -10 32 -39 33 -25 1 -39 -5 -50 -21z m70 -7 c3 -5 -3
-10 -14 -10 -12 0 -21 5 -21 10 0 6 6 10 14 10 8 0 18 -4 21 -10z"/>
<path d="M6110 650 c0 -5 5 -10 10 -10 6 0 10 5 10 10 0 6 -4 10 -10 10 -5 0
-10 -4 -10 -10z"/>
<path d="M6145 640 c3 -5 8 -10 11 -10 2 0 4 5 4 10 0 6 -5 10 -11 10 -5 0 -7
-4 -4 -10z"/>
<path d="M5105 630 c-3 -5 -1 -10 4 -10 6 0 11 5 11 10 0 6 -2 10 -4 10 -3 0
-8 -4 -11 -10z"/>
<path d="M6175 630 c3 -5 10 -10 16 -10 5 0 9 5 9 10 0 6 -7 10 -16 10 -8 0
-12 -4 -9 -10z"/>
<path d="M5483 611 c-24 -20 -30 -41 -13 -41 6 0 10 5 10 10 0 6 6 10 14 10 7
0 16 9 19 20 6 25 -1 25 -30 1z"/>
<path d="M6210 614 c0 -8 4 -13 9 -10 5 4 21 2 35 -4 14 -5 26 -6 26 -1 0 5
-14 14 -31 20 -40 14 -39 14 -39 -5z"/>
<path d="M5020 600 c0 -5 5 -10 10 -10 6 0 10 5 10 10 0 6 -4 10 -10 10 -5 0
-10 -4 -10 -10z"/>
<path d="M5795 590 c-3 -5 -1 -10 4 -10 6 0 11 5 11 10 0 6 -2 10 -4 10 -3 0
-8 -4 -11 -10z"/>
<path d="M6100 579 c0 -5 5 -7 10 -4 6 3 10 8 10 11 0 2 -4 4 -10 4 -5 0 -10
-5 -10 -11z"/>
<path d="M5510 568 c0 -27 70 -88 102 -88 26 0 22 7 -12 25 -21 11 -30 23 -30
40 0 26 -15 34 -23 13 -3 -9 -10 -7 -21 7 -14 18 -15 18 -16 3z"/>
<path d="M6135 570 c4 -6 11 -8 16 -5 14 9 11 15 -7 15 -8 0 -12 -5 -9 -10z"/>
<path d="M6170 560 c0 -5 5 -10 10 -10 6 0 10 5 10 10 0 6 -4 10 -10 10 -5 0
-10 -4 -10 -10z"/>
<path d="M6204 553 c4 -5 12 -9 17 -9 5 -1 10 -2 12 -3 9 -8 47 -9 47 -2 0 10
-34 21 -64 21 -11 0 -16 -3 -12 -7z"/>
<path d="M4975 540 c-3 -5 -2 -10 4 -10 5 0 13 5 16 10 3 6 2 10 -4 10 -5 0
-13 -4 -16 -10z"/>
<path d="M6130 510 c0 -5 5 -10 10 -10 6 0 10 5 10 10 0 6 -4 10 -10 10 -5 0
-10 -4 -10 -10z"/>
<path d="M6160 500 c0 -5 5 -10 10 -10 6 0 10 5 10 10 0 6 -4 10 -10 10 -5 0
-10 -4 -10 -10z"/>
<path d="M5000 490 c-9 -6 -10 -10 -3 -10 6 0 15 5 18 10 8 12 4 12 -15 0z"/>
<path d="M6195 490 c3 -5 8 -10 11 -10 2 0 4 5 4 10 0 6 -5 10 -11 10 -5 0 -7
-4 -4 -10z"/>
<path d="M6226 491 c-3 -5 4 -11 16 -14 30 -8 35 -1 9 12 -11 6 -22 7 -25 2z"/>
<path d="M4835 480 c-3 -5 -1 -10 4 -10 6 0 11 5 11 10 0 6 -2 10 -4 10 -3 0
-8 -4 -11 -10z"/>
<path d="M5240 469 c0 -5 5 -7 10 -4 6 3 10 8 10 11 0 2 -4 4 -10 4 -5 0 -10
-5 -10 -11z"/>
<path d="M5645 471 c-3 -6 -11 -9 -16 -6 -5 3 -6 -1 -3 -10 6 -15 8 -15 22 -1
9 9 13 18 10 21 -3 4 -9 1 -13 -4z"/>
<path d="M5345 460 c-3 -5 -1 -10 4 -10 6 0 11 5 11 10 0 6 -2 10 -4 10 -3 0
-8 -4 -11 -10z"/>
<path d="M4820 439 c0 -5 5 -7 10 -4 6 3 10 8 10 11 0 2 -4 4 -10 4 -5 0 -10
-5 -10 -11z"/>
<path d="M6120 440 c0 -5 5 -10 10 -10 6 0 10 5 10 10 0 6 -4 10 -10 10 -5 0
-10 -4 -10 -10z"/>
<path d="M5050 436 c0 -2 7 -7 16 -10 8 -3 12 -2 9 4 -6 10 -25 14 -25 6z"/>
<path d="M6150 430 c0 -5 5 -10 10 -10 6 0 10 5 10 10 0 6 -4 10 -10 10 -5 0
-10 -4 -10 -10z"/>
<path d="M6190 426 c0 -7 6 -13 13 -13 6 0 22 -3 35 -7 13 -5 22 -3 22 3 0 6
-1 11 -3 11 -1 0 -17 4 -35 9 -24 7 -32 6 -32 -3z"/>
<path d="M5130 419 c0 -5 5 -7 10 -4 6 3 10 8 10 11 0 2 -4 4 -10 4 -5 0 -10
-5 -10 -11z"/>
<path d="M4805 410 c-3 -5 -1 -10 4 -10 6 0 11 5 11 10 0 6 -2 10 -4 10 -3 0
-8 -4 -11 -10z"/>
<path d="M4751 384 c0 -11 3 -14 6 -6 3 7 2 16 -1 19 -3 4 -6 -2 -5 -13z"/>
<path d="M6110 380 c0 -5 5 -10 11 -10 5 0 7 5 4 10 -3 6 -8 10 -11 10 -2 0
-4 -4 -4 -10z"/>
<path d="M5270 370 c0 -5 5 -10 10 -10 6 0 10 5 10 10 0 6 -4 10 -10 10 -5 0
-10 -4 -10 -10z"/>
<path d="M5305 370 c3 -5 8 -10 11 -10 2 0 4 5 4 10 0 6 -5 10 -11 10 -5 0 -7
-4 -4 -10z"/>
<path d="M6140 370 c0 -5 5 -10 10 -10 6 0 10 5 10 10 0 6 -4 10 -10 10 -5 0
-10 -4 -10 -10z"/>
<path d="M6170 360 c0 -5 5 -10 10 -10 6 0 10 5 10 10 0 6 -4 10 -10 10 -5 0
-10 -4 -10 -10z"/>
<path d="M6200 361 c0 -5 5 -13 10 -16 6 -3 10 -2 10 4 0 5 -4 13 -10 16 -5 3
-10 2 -10 -4z"/>
<path d="M6230 345 c0 -8 5 -15 10 -15 6 0 10 7 10 15 0 8 -4 15 -10 15 -5 0
-10 -7 -10 -15z"/>
<path d="M4767 328 c-9 -31 -2 -33 11 -3 6 14 8 25 3 25 -5 0 -11 -10 -14 -22z"/>
<path d="M6064 309 c-3 -6 -2 -15 3 -20 5 -5 9 -1 9 11 0 23 -2 24 -12 9z"/>
<path d="M6090 310 c0 -5 5 -10 10 -10 6 0 10 5 10 10 0 6 -4 10 -10 10 -5 0
-10 -4 -10 -10z"/>
<path d="M6126 295 c4 -8 8 -15 10 -15 2 0 4 7 4 15 0 8 -4 15 -10 15 -5 0 -7
-7 -4 -15z"/>
<path d="M6160 290 c0 -5 5 -10 10 -10 6 0 10 5 10 10 0 6 -4 10 -10 10 -5 0
-10 -4 -10 -10z"/>
<path d="M6201 280 c-9 -5 -4 -7 13 -7 29 0 32 2 13 10 -8 3 -20 2 -26 -3z"/>
<path d="M6251 264 c0 -11 3 -14 6 -6 3 7 2 16 -1 19 -3 4 -6 -2 -5 -13z"/>
<path d="M6050 254 c0 -8 5 -12 10 -9 6 4 8 11 5 16 -9 14 -15 11 -15 -7z"/>
<path d="M4790 239 c0 -5 5 -7 10 -4 6 3 10 8 10 11 0 2 -4 4 -10 4 -5 0 -10
-5 -10 -11z"/>
<path d="M6115 230 c3 -5 8 -10 11 -10 2 0 4 5 4 10 0 6 -5 10 -11 10 -5 0 -7
-4 -4 -10z"/>
<path d="M6150 219 c0 -5 5 -7 10 -4 6 3 10 8 10 11 0 2 -4 4 -10 4 -5 0 -10
-5 -10 -11z"/>
<path d="M6180 216 c0 -9 5 -16 10 -16 6 0 10 4 10 9 0 6 -4 13 -10 16 -5 3
-10 -1 -10 -9z"/>
<path d="M4780 204 c0 -8 5 -12 10 -9 6 4 8 11 5 16 -9 14 -15 11 -15 -7z"/>
<path d="M6236 197 c3 -10 9 -15 12 -12 3 3 0 11 -7 18 -10 9 -11 8 -5 -6z"/>
<path d="M3275 190 c3 -5 8 -10 11 -10 2 0 4 5 4 10 0 6 -5 10 -11 10 -5 0 -7
-4 -4 -10z"/>
<path d="M3355 190 c-3 -5 1 -10 9 -10 9 0 16 5 16 10 0 6 -4 10 -9 10 -6 0
-13 -4 -16 -10z"/>
<path d="M6025 190 c-3 -5 1 -10 10 -10 9 0 13 5 10 10 -3 6 -8 10 -10 10 -2
0 -7 -4 -10 -10z"/>
<path d="M3455 169 c-4 -12 -2 -26 4 -32 8 -8 11 -7 11 5 0 9 10 24 22 32 l22
16 -26 0 c-18 0 -29 -7 -33 -21z"/>
<path d="M4731 154 c0 -11 3 -14 6 -6 3 7 2 16 -1 19 -3 4 -6 -2 -5 -13z"/>
<path d="M4760 155 c0 -8 5 -15 10 -15 6 0 10 7 10 15 0 8 -4 15 -10 15 -5 0
-10 -7 -10 -15z"/>
<path d="M6100 160 c0 -5 5 -10 10 -10 6 0 10 5 10 10 0 6 -4 10 -10 10 -5 0
-10 -4 -10 -10z"/>
<path d="M6140 160 c0 -5 5 -10 10 -10 6 0 10 5 10 10 0 6 -4 10 -10 10 -5 0
-10 -4 -10 -10z"/>
<path d="M3561 136 c-13 -14 -21 -32 -18 -43 4 -16 6 -16 12 3 4 12 17 27 31
34 13 7 21 17 18 22 -8 13 -19 9 -43 -16z"/>
<path d="M5300 129 c0 -5 5 -7 10 -4 6 3 10 8 10 11 0 2 -4 4 -10 4 -5 0 -10
-5 -10 -11z"/>
<path d="M6230 130 c0 -5 5 -10 10 -10 6 0 10 5 10 10 0 6 -4 10 -10 10 -5 0
-10 -4 -10 -10z"/>
<path d="M4750 121 c0 -6 5 -13 10 -16 6 -3 10 1 10 9 0 9 -4 16 -10 16 -5 0
-10 -4 -10 -9z"/>
<path d="M3650 98 c-29 -32 -25 -43 9 -19 16 12 37 21 48 21 15 0 16 2 3 10
-23 15 -37 12 -60 -12z"/>
<path d="M6090 100 c0 -5 5 -10 11 -10 5 0 7 5 4 10 -3 6 -8 10 -11 10 -2 0
-4 -4 -4 -10z"/>
<path d="M6131 84 c0 -11 3 -14 6 -6 3 7 2 16 -1 19 -3 4 -6 -2 -5 -13z"/>
<path d="M6160 80 c0 -5 5 -10 10 -10 6 0 10 5 10 10 0 6 -4 10 -10 10 -5 0
-10 -4 -10 -10z"/>
<path d="M5040 60 c14 -11 32 -20 40 -20 17 0 -13 23 -45 33 -16 6 -15 3 5
-13z"/>
<path d="M6190 70 c0 -5 5 -10 11 -10 5 0 7 5 4 10 -3 6 -8 10 -11 10 -2 0 -4
-4 -4 -10z"/>
<path d="M3725 50 c-26 -28 -17 -29 35 -3 44 22 45 22 14 23 -19 0 -38 -8 -49
-20z"/>
<path d="M6231 54 c0 -11 3 -14 6 -6 3 7 2 16 -1 19 -3 4 -6 -2 -5 -13z"/>
<path d="M6085 30 c-3 -5 -1 -10 4 -10 6 0 11 5 11 10 0 6 -2 10 -4 10 -3 0
-8 -4 -11 -10z"/>
<path d="M3854 14 l-29 -12 30 0 c17 -1 39 3 49 7 19 7 19 8 0 13 -12 3 -34 0
-50 -8z"/>
<path d="M6120 20 c0 -5 5 -10 10 -10 6 0 10 5 10 10 0 6 -4 10 -10 10 -5 0
-10 -4 -10 -10z"/>
<path d="M3280 10 c-12 -8 -10 -10 8 -10 13 0 20 4 17 10 -7 12 -6 12 -25 0z"/>
<path d="M6160 10 c0 -5 5 -10 11 -10 5 0 7 5 4 10 -3 6 -8 10 -11 10 -2 0 -4
-4 -4 -10z"/>
</g>
</svg>
